<svg width="93" height="25" viewBox="0 0 93 25" fill="none" xmlns="http://www.w3.org/2000/svg">
<path d="M18.7066 22.4528C16.9372 24.0721 14.6745 24.8817 11.9185 24.8817C8.50833 24.8817 5.8274 23.7879 3.87567 21.6003C1.92395 19.4019 0.948089 16.3885 0.948089 12.5602C0.948089 8.42079 2.058 5.23047 4.27781 2.98921C6.20809 1.03748 8.66383 0.0616235 11.645 0.0616235C15.6343 0.0616235 18.5511 1.36992 20.3956 3.98652C21.4144 5.45567 21.9613 6.93018 22.0363 8.41006H17.082C16.7603 7.27334 16.3474 6.41544 15.8434 5.83636C14.9426 4.80688 13.6075 4.29214 11.8381 4.29214C10.0365 4.29214 8.61557 5.02136 7.57537 6.47979C6.53516 7.92749 6.01506 9.98109 6.01506 12.6406C6.01506 15.3001 6.56197 17.2947 7.65579 18.6244C8.76034 19.9435 10.1598 20.603 11.8541 20.603C13.5914 20.603 14.9158 20.0346 15.8273 18.8979C16.3313 18.2866 16.7495 17.3698 17.082 16.1472H21.9881C21.5591 18.7317 20.4653 20.8335 18.7066 22.4528ZM38.6779 19.3483H29.9434L28.3027 24.2222H23.1231L31.5841 0.512021H37.1819L45.5786 24.2222H40.206L38.6779 19.3483ZM37.2945 15.2625L34.3348 5.93288L31.2785 15.2625H37.2945ZM52.1506 24.2222H47.534V0.512021H54.7403L59.0513 19.1553L63.3301 0.512021H70.456V24.2222H65.8394V8.18486C65.8394 7.72374 65.8448 7.08032 65.8555 6.25459C65.8662 5.41814 65.8716 4.77471 65.8716 4.32431L61.3837 24.2222H56.5741L52.1184 4.32431C52.1184 4.77471 52.1238 5.41814 52.1345 6.25459C52.1452 7.08032 52.1506 7.72374 52.1506 8.18486V24.2222ZM84.1378 15.6968H79.103V24.2222H74.1808V0.512021H84.5077C86.8884 0.512021 88.7865 1.12327 90.2021 2.34578C91.6176 3.56829 92.3254 5.46103 92.3254 8.02401C92.3254 10.8229 91.6176 12.8014 90.2021 13.9596C88.7865 15.1178 86.7651 15.6968 84.1378 15.6968ZM86.4541 10.7586C87.0975 10.1902 87.4192 9.28941 87.4192 8.05618C87.4192 6.82295 87.0922 5.9436 86.438 5.41814C85.7946 4.89267 84.8884 4.62994 83.7196 4.62994H79.103V11.6111H83.7196C84.8884 11.6111 85.8 11.3269 86.4541 10.7586Z" fill="black"/>
</svg>
