<svg width="234" height="221" viewBox="0 0 234 221" fill="none" xmlns="http://www.w3.org/2000/svg">
<path d="M164.247 105.658C174.832 119.969 164.904 134.557 159.33 142.528C158.337 143.947 152.8 150.287 150.659 152.857C149.6 154.123 143.676 169.14 145.29 169.672C147.496 170.4 149.498 171.462 151.28 172.955C153.194 174.563 154.275 176.703 155.262 178.916C155.561 179.593 155.839 180.285 155.802 181.064C155.758 181.995 155.349 182.563 154.458 182.811C153.947 182.956 153.428 182.985 152.909 182.985C147.394 182.985 138.643 182.985 132.039 182.985C131.206 182.985 130.461 182.308 130.381 181.486C129.862 175.976 131.236 165.763 130.987 161.155C130.819 157.967 128.014 157.414 127.335 161.155C127.057 162.655 125.114 178.887 125.019 181.573C124.997 182.236 124.332 183.007 123.741 183.007C116.385 182.993 108.473 182.993 102.249 182.993C102.016 182.993 101.782 182.993 101.548 182.978C99.6781 182.869 98.9257 181.821 99.4809 180.016C101.022 175.022 104.244 171.608 109.218 169.876C111.673 169.024 118.32 153.869 116.195 152.362C111.819 149.268 111.994 148.358 109.934 146.342C106.457 142.207 103.659 137.607 101.928 132.489C100.102 127.088 100.672 121.774 104.448 117.065C105.654 115.558 107.151 114.321 108.758 113.258C109.299 112.901 109.795 112.53 110.226 112.049C110.899 111.307 110.628 110.564 110.285 109.8C110.007 109.181 109.489 109.152 108.897 109.138C107.648 109.116 106.435 109.451 105.179 109.429C101.818 109.371 98.597 108.752 96.0476 106.481C94.6742 105.258 93.9437 103.511 93.8195 101.56C93.6296 98.5465 93.279 95.5329 93.4397 92.512C93.6004 89.4475 93.951 86.3902 94.4185 83.3475C94.7765 81.0036 95.412 78.7397 96.0329 76.4613C98.1076 68.7818 100.978 61.3934 104.251 54.1505C106.128 50.0014 108.576 46.2089 111.797 42.9405C113.638 41.0698 115.588 39.3519 118.101 38.4201C118.554 38.2527 119.036 38.1071 119.511 38.0416C120.512 37.9033 121.505 38.5803 121.871 39.5848C122.25 40.6257 122.302 41.674 122.243 42.7658C122.155 44.4765 122.075 46.1943 122.061 47.9122C122.031 51.3044 121.973 54.7038 122.031 58.1032C122.053 59.3406 122.163 60.5926 122.353 61.8156C122.623 63.5844 123.916 64.6035 125.808 64.5889C128.08 64.5671 130.301 64.2031 132.448 63.4388C139.3 61.0003 145.729 57.7246 151.514 53.3353C155.459 50.3435 158.111 46.3691 159.403 41.5429C160.017 39.25 160.273 36.9133 160.507 34.5622C160.704 32.5385 160.528 30.4931 160.806 28.4913C160.989 27.1446 161.113 25.7179 162.209 24.6624C163.041 23.8617 164.371 23.7816 165.24 24.5459C165.817 25.0555 166.197 25.7106 166.577 26.3658C168.484 29.656 170.419 32.9316 171.997 36.3965C173.853 40.4729 175.211 44.7094 176.161 49.0988C176.76 51.8649 177.257 54.6528 177.556 57.4553C177.768 59.4207 177.87 61.4079 177.936 63.3951C178.009 65.6881 177.987 67.9811 177.834 70.2594C177.688 72.4651 177.498 74.6707 177.184 76.869C176.862 79.1474 176.526 81.4185 176.088 83.6751C175.021 89.1636 173.831 94.6157 170.617 99.3618C168.973 101.786 167.015 103.897 164.488 105.44C164.393 105.498 164.32 105.6 164.247 105.673" fill="black"/>
<path d="M95.0322 146.808C80.5683 149.916 65.1768 140.824 55.8045 130.284C50.4792 124.293 47.9955 117.895 46.7025 110.055C46.4761 108.686 45.8552 104.435 46.7975 103.314C48.054 101.829 52.8533 104.792 54.1974 105.243C61.9188 107.864 69.9835 108.614 78.0116 109.735C82.9352 110.426 94.4332 110.827 98.2317 114.488C100.599 116.766 98.5312 118.382 97.6766 121.301C96.5954 124.992 96.6466 129.068 97.8227 132.737C98.6262 135.27 102.169 139.376 102.089 141.8C102.008 144.231 96.8949 146.313 95.0395 146.793C92.5339 147.332 97.4282 146.167 95.0395 146.793" fill="black"/>
<path d="M112.257 108.614C111.549 103.322 113.769 99.602 119.131 97.855C120.95 97.2654 122.806 97.2654 124.632 97.7021C126.341 98.1097 127.13 99.3035 127.247 101.036C127.444 103.919 125.655 105.418 123.434 106.59C121.717 107.5 119.935 108.293 118.189 109.145C117.166 109.647 116.246 110.31 115.325 110.972C114.427 111.627 113.514 111.445 112.981 110.47C112.652 109.866 112.243 109.269 112.265 108.614" fill="#FEFEFE"/>
<path d="M111.614 87.584C111.008 82.3939 112.33 78.2593 116.019 75.0419C117.02 74.1684 118.138 73.3022 119.584 73.2003C119.803 73.1857 120.139 72.9892 120.22 73.4041C120.285 73.7389 120.037 73.8408 119.781 73.95C119.35 74.1247 118.927 74.3213 118.51 74.5323C116.516 75.5296 115.924 77.2038 116.845 79.2347C117.597 80.8871 117.502 81.5277 116.18 82.7797C114.076 84.7742 114.171 86.958 115.61 89.8405C115.932 90.4884 116.377 91.0707 116.75 91.6968C117.144 92.3664 116.94 92.745 116.195 92.7304C114.39 92.7013 113.397 91.4638 112.535 90.139C111.958 89.2582 111.782 88.21 111.629 87.5986" fill="#FEFEFE"/>
<path d="M125.983 111.853C124.683 111.94 122.864 111.867 121.06 111.533C120.695 111.467 120.366 111.263 120.322 110.885C120.285 110.528 120.6 110.353 120.899 110.201C122.835 109.211 124.851 108.388 126.641 107.114C127.89 106.226 129.124 107.362 129.234 108.701C129.387 110.615 128.701 111.358 125.983 111.853Z" fill="#FEFEFE"/>
<path d="M174.203 141.297C188.558 144.886 204.241 136.311 213.964 126.084C219.487 120.275 222.182 113.964 223.731 106.168C224.001 104.807 224.768 100.577 223.862 99.4273C222.657 97.8987 217.763 100.701 216.404 101.116C208.602 103.475 200.516 103.962 192.451 104.814C187.506 105.338 176 105.36 172.085 108.898C169.645 111.103 171.661 112.777 172.414 115.725C173.371 119.452 173.181 123.522 171.888 127.154C170.996 129.658 167.322 133.647 167.322 136.071C167.322 138.495 172.362 140.751 174.203 141.297C176.694 141.916 171.836 140.591 174.203 141.297Z" fill="black"/>
<path d="M138.168 84.9052C139.687 84.7451 141.083 84.3884 142.376 83.8643C142.653 83.7478 142.931 83.6532 143.252 83.595C144.005 83.4712 144.436 83.6678 144.341 84.1118C144.231 84.6359 143.712 85.0872 143.186 85.5094C142.003 86.463 140.615 87.3219 138.65 87.715C136.385 88.159 134.428 87.9043 132.872 87.0162C131.82 86.412 131.053 85.6987 130.622 84.8543C130.571 84.7524 130.49 84.6577 130.49 84.5558C130.49 84.2574 130.381 83.9298 130.951 83.7114C131.535 83.4785 132.003 83.6605 132.39 83.8352C133.493 84.3302 134.691 84.7232 136.115 84.8979C136.787 84.978 137.467 84.9853 138.168 84.9125" fill="#FEFEFE"/>
<path fill-rule="evenodd" clip-rule="evenodd" d="M42.2072 48.5366L32.346 57.804L36.8747 41.8236L19.748 45.7671L29.8897 36.8939H10.9591L28.5368 31.4702L12.9868 24.5868L26.0806 21.8121L19.2953 13.3172L29.9879 14.9042L26.0582 4.1113L36.2516 10.8064L38.6476 0.860672L45.8925 9.77431C45.8925 9.15516 50.144 0.987014 50.3695 0.987014C50.595 0.987083 54.7536 9.60803 54.7536 9.60803L62.341 1.64626L64.2464 11.0128L71.3536 2.99299C71.3536 2.99299 71.5085 11.9526 71.9595 11.9526C72.4105 11.9526 82.7235 6.39785 82.7235 6.39785C82.7235 6.39785 80.249 16.6018 80.249 16.8482C80.249 17.0947 91.4383 15.0709 91.4383 15.0709L82.2231 22.4317L91.9883 25.7899C91.9883 25.7899 83.8029 32.0227 84.0284 32.2688C84.2537 32.515 91.2648 38.7787 91.2648 38.7787C91.2648 38.7787 78.7684 38.4706 78.9937 38.4706C79.0185 38.6771 90.9424 47.8584 90.9424 48.1063C90.9424 48.3524 77.9681 44.8221 77.9681 44.8221L86.7102 57.6508L72.1333 47.2457L75.2144 58.5372L66.6253 51.449L68.9559 57.5871L57.8071 52.227L85.4698 82.9295L50.8222 52.1083L46.6223 59.6285L42.2072 48.5366Z" fill="white"/>
<path fill-rule="evenodd" clip-rule="evenodd" d="M38.4572 0.0213479C38.138 0.0937432 37.8875 0.340913 37.8108 0.659099L35.7014 9.41537L26.5306 3.39195C26.2206 3.18832 25.8149 3.20623 25.5241 3.4364C25.2332 3.66657 25.1225 4.05721 25.2494 4.40575L28.6847 13.8407L19.4216 12.4659C19.0717 12.414 18.7256 12.5814 18.5492 12.888C18.3728 13.1946 18.402 13.5779 18.6228 13.8543L24.5375 21.2593L12.8083 23.7448C12.4431 23.8222 12.1695 24.1262 12.1307 24.4975C12.092 24.8687 12.297 25.2226 12.6384 25.3737L26.0849 31.326L10.7053 36.0715C10.2985 36.197 10.0446 36.6012 10.108 37.0222C10.1715 37.4432 10.5333 37.7545 10.9591 37.7545H27.599L19.1812 45.1194C18.8843 45.3791 18.802 45.8075 18.9816 46.1588C19.1612 46.5101 19.5566 46.6943 19.941 46.6058L35.6499 42.9888L31.5179 57.5693C31.4124 57.9415 31.5683 58.3384 31.8988 58.5394C32.2294 58.7403 32.6534 58.6961 32.9353 58.4311L41.8751 50.0297L45.8226 59.9468C45.9454 60.2553 46.2347 60.4657 46.5661 60.4873C46.8975 60.509 47.2117 60.3381 47.3736 60.0482L51.0509 53.4637L84.8977 83.5725C85.2391 83.8762 85.7582 83.8602 86.0802 83.5361C86.4023 83.212 86.4149 82.6928 86.1091 82.3534L61.3688 54.8944L68.5829 58.3628C68.9002 58.5153 69.2785 58.4592 69.5379 58.2211C69.7972 57.9829 69.8854 57.6108 69.7604 57.2816L68.5829 54.1805L74.6666 59.201C74.9558 59.4398 75.3664 59.4637 75.6814 59.2601C75.9964 59.0566 76.1434 58.6725 76.0447 58.3107L73.5995 49.3497L86.2101 58.3513C86.5495 58.5936 87.0139 58.5576 87.312 58.2659C87.6101 57.9743 87.6562 57.5108 87.4213 57.1661L79.9889 46.2594C81.1785 46.579 82.7074 46.9873 84.2366 47.3889C85.8595 47.8151 87.4873 48.2349 88.7114 48.5332C89.3217 48.6819 89.8409 48.8026 90.2115 48.8788C90.3932 48.9162 90.558 48.9469 90.6859 48.9635C90.7424 48.9708 90.8318 48.981 90.924 48.979C90.9591 48.9782 91.0705 48.9754 91.1994 48.9335C91.2682 48.9111 91.803 48.7178 91.803 48.1063C91.803 47.9135 91.7382 47.7726 91.7166 47.7274C91.6871 47.6659 91.6562 47.6195 91.6382 47.5938C91.6015 47.5415 91.5646 47.4999 91.543 47.4763C91.4964 47.4254 91.4425 47.3737 91.3933 47.3282C91.291 47.2334 91.1507 47.1117 90.985 46.9718C90.6507 46.6897 90.1783 46.3047 89.618 45.8544C88.496 44.9526 87.0015 43.7726 85.5101 42.597C85.3002 42.4317 85.0905 42.2663 84.8818 42.1019C83.6276 41.1136 82.4125 40.156 81.4582 39.3959C82.4987 39.4221 83.7587 39.4536 85.0233 39.485C88.1053 39.5617 91.2505 39.6393 91.2648 39.6393C91.6217 39.6393 91.9416 39.419 92.0688 39.0856C92.1961 38.7521 92.1043 38.3747 91.8382 38.1369L91.2648 38.7787C91.8382 38.1369 91.8382 38.1369 91.8382 38.1369L91.5366 37.8674C91.3445 37.6957 91.0699 37.4501 90.7395 37.1547C90.0789 36.5637 89.1957 35.7733 88.3056 34.9753C87.4153 34.1771 86.5186 33.3718 85.8307 32.7509C85.6133 32.5547 85.4172 32.3773 85.2489 32.2246C85.3878 32.1026 85.5493 31.9641 85.731 31.8112C86.4556 31.2016 87.4487 30.4065 88.4561 29.6133C89.4619 28.8214 90.4754 28.0367 91.2379 27.4496C91.619 27.1561 91.9371 26.9122 92.1599 26.7418C92.2713 26.6565 92.3588 26.5897 92.4185 26.5442L92.5095 26.4747C92.5096 26.4747 92.5096 26.4747 91.9882 25.7899L92.5095 26.4747C92.7622 26.2824 92.8884 25.9665 92.8379 25.653C92.7874 25.3395 92.5684 25.0793 92.2681 24.9761L83.9835 22.127L91.9754 15.7433C92.2833 15.4973 92.3849 15.0736 92.2218 14.7148C92.0588 14.356 91.6729 14.1538 91.2851 14.224L91.4383 15.0708C91.2851 14.224 91.2852 14.2239 91.2851 14.224L91.2846 14.224L91.16 14.2465C91.0783 14.2612 90.9583 14.2828 90.8056 14.3102C90.5001 14.365 90.0636 14.443 89.5398 14.5358C88.4919 14.7215 87.0954 14.9664 85.6995 15.2035C84.3021 15.4408 82.9109 15.6695 81.8714 15.8231C81.6786 15.8516 81.4995 15.8773 81.3357 15.8999C81.3775 15.7192 81.4237 15.5207 81.4736 15.3075C81.705 14.3185 82.0139 13.0217 82.3231 11.7312C82.6323 10.4409 82.9415 9.1583 83.1734 8.19812C83.2893 7.71805 83.386 7.31865 83.4536 7.03928L83.5598 6.60079C83.5598 6.60071 83.5598 6.60068 82.7234 6.39785C82.3153 5.64013 82.3153 5.64014 82.3152 5.64018L82.1999 5.70226C82.1244 5.74286 82.0135 5.80243 81.8723 5.87828C81.5898 6.02997 81.1856 6.24671 80.6992 6.50682C79.7261 7.02712 78.4245 7.7206 77.1093 8.41386C75.7931 9.10761 74.4669 9.7992 73.4433 10.3166C73.111 10.4846 72.8132 10.6328 72.5596 10.7562C72.5501 10.6677 72.5408 10.5733 72.5315 10.4731C72.4556 9.6554 72.3946 8.55298 72.3472 7.43628C72.3 6.32286 72.2667 5.2081 72.2451 4.37083C72.2344 3.95243 72.2266 3.60383 72.2215 3.36C72.219 3.23809 72.2171 3.1424 72.2159 3.07729L72.2141 2.97843L72.2141 2.97817C72.2141 2.97812 72.2141 2.97811 71.3535 2.99299L72.2141 2.97817C72.2079 2.62338 71.9847 2.30867 71.6518 2.18569C71.319 2.06271 70.9448 2.15661 70.7094 2.42218L64.746 9.15138L63.1843 1.47469C63.1204 1.16052 62.8871 0.907912 62.579 0.819213C62.2709 0.730513 61.9391 0.820424 61.7179 1.05252L54.9867 8.11585C54.9505 8.04148 54.913 7.96423 54.8741 7.88434C54.4802 7.07511 53.9524 5.99553 53.4172 4.91546C52.8827 3.83658 52.3385 2.75246 51.9127 1.93605C51.7005 1.5294 51.5132 1.18025 51.369 0.929071C51.2984 0.806019 51.2294 0.691016 51.168 0.600619C51.1395 0.55856 51.0969 0.498337 51.0455 0.440401C51.0214 0.413219 50.9736 0.361596 50.9061 0.309941L50.9039 0.308248C50.865 0.27837 50.6674 0.126462 50.3697 0.126371H50.3694C50.0862 0.126371 49.895 0.264269 49.855 0.293146L49.8532 0.294433C49.7855 0.343112 49.737 0.39217 49.7119 0.418605C49.659 0.474534 49.615 0.532749 49.5855 0.573401C49.5222 0.660611 49.4512 0.771113 49.3788 0.888979C49.2311 1.12969 49.0393 1.46413 48.8222 1.85537C48.3863 2.64097 47.8294 3.68969 47.2812 4.75456C46.7331 5.81918 46.1897 6.90788 45.7818 7.77305C45.7303 7.88225 45.6807 7.98844 45.6333 8.09104L39.3154 0.317841C39.109 0.063863 38.7764 -0.0510474 38.4572 0.0213479ZM54.7535 9.60803L53.9784 9.98196C54.1011 10.2364 54.3408 10.4144 54.6199 10.4582C54.8989 10.5021 55.1817 10.4062 55.3766 10.2018L61.8263 3.43379L63.403 11.1843C63.4681 11.504 63.7082 11.7594 64.0233 11.844C64.3383 11.9285 64.6741 11.8277 64.8905 11.5836L70.546 5.20183C70.5665 5.90218 70.5934 6.70539 70.6275 7.50929C70.6752 8.63249 70.7375 9.76997 70.8175 10.6322C70.8571 11.0588 70.9032 11.4431 70.9589 11.7311C70.9855 11.8683 71.0221 12.027 71.0778 12.168C71.1039 12.234 71.1544 12.3497 71.2451 12.4635C71.3258 12.5646 71.5606 12.8132 71.9594 12.8132C72.1172 12.8132 72.2538 12.7688 72.289 12.7574C72.2905 12.7569 72.2919 12.7565 72.2931 12.7561C72.3548 12.7363 72.4187 12.7118 72.4781 12.6877C72.5988 12.6388 72.7482 12.5719 72.9157 12.4937C73.253 12.3361 73.7023 12.1143 74.2198 11.8527C75.2568 11.3286 76.5934 10.6315 77.9119 9.93657C79.1972 9.2591 80.4687 8.58183 81.4347 8.06543C81.2116 8.9896 80.9304 10.1566 80.6492 11.3301C80.3398 12.6213 80.0301 13.9217 79.7976 14.9153C79.6814 15.4117 79.584 15.8338 79.5154 16.1406C79.4812 16.2935 79.4533 16.4215 79.4337 16.5172C79.424 16.5644 79.4152 16.609 79.4085 16.647C79.4085 16.6472 79.4084 16.6476 79.4083 16.6482C79.406 16.6601 79.3883 16.7541 79.3883 16.8482C79.3883 17.34 79.7564 17.5686 79.8642 17.6239C79.9903 17.6886 80.1042 17.7081 80.1446 17.7146C80.2426 17.7303 80.3354 17.7303 80.3881 17.7294C80.5093 17.7275 80.6602 17.7151 80.8186 17.6987C81.1438 17.6649 81.596 17.6038 82.1231 17.5259C83.1816 17.3694 84.5877 17.1383 85.9877 16.9005C86.7649 16.7684 87.5419 16.6341 88.259 16.5089L81.6859 21.7593C81.4406 21.9552 81.3215 22.2692 81.375 22.5785C81.4286 22.8878 81.6463 23.1435 81.9432 23.2456L90.1921 26.0824C90.1906 26.0835 90.1892 26.0846 90.1877 26.0857C89.4225 26.675 88.4037 27.4638 87.3913 28.2609C86.3806 29.0566 85.3696 29.8658 84.6229 30.4941C84.2519 30.8062 83.9331 31.0845 83.7099 31.2987C83.6025 31.4016 83.4934 31.5123 83.4098 31.6163C83.3733 31.6617 83.3047 31.7505 83.2515 31.8646C83.2257 31.9197 83.1776 32.0345 83.1658 32.1865C83.1529 32.3526 83.183 32.62 83.3935 32.8499M54.7535 9.60803C53.9784 9.98196 53.9784 9.98201 53.9784 9.98196L53.9782 9.9816L53.9776 9.98045L53.9319 9.88569C53.9015 9.82274 53.8568 9.73034 53.7998 9.6127C53.6859 9.37741 53.5228 9.04118 53.3264 8.63766C52.9335 7.83047 52.4076 6.7548 51.8749 5.67963C51.3416 4.60326 50.8038 3.53213 50.3865 2.7321C50.3731 2.70634 50.3598 2.68089 50.3466 2.65577C50.3402 2.66729 50.3338 2.67888 50.3273 2.69055C49.9027 3.45582 49.3544 4.48784 48.8116 5.5424C48.2686 6.59721 47.735 7.66663 47.3387 8.50712C47.14 8.92861 46.9798 9.28389 46.871 9.54744C46.8162 9.68026 46.779 9.77873 46.7569 9.84509C46.7528 9.85754 46.7495 9.86777 46.7471 9.87594C46.7089 10.1979 46.4914 10.4749 46.1804 10.5853C45.8371 10.7072 45.4543 10.5998 45.2245 10.3171L39.0768 2.75337L37.0882 11.008C37.0226 11.2803 36.8286 11.5037 36.5681 11.6067C36.3075 11.7097 36.0132 11.6795 35.7791 11.5257L27.7546 6.25526L30.7965 14.6098C30.9003 14.8948 30.8464 15.2134 30.6546 15.4484C30.4628 15.6834 30.1615 15.8001 29.8614 15.7555L21.3333 14.4898L26.7529 21.2749C26.9392 21.5082 26.9914 21.8213 26.8907 22.1023C26.79 22.3833 26.5509 22.5921 26.2589 22.654L15.7686 24.877L28.8851 30.6832C29.2134 30.8285 29.417 31.1623 29.3959 31.5207C29.3748 31.879 29.1335 32.1867 28.7905 32.2925L16.6673 36.0333H29.8897C30.2482 36.0333 30.5692 36.2556 30.6953 36.5912C30.8214 36.9269 30.7262 37.3055 30.4564 37.5416L22.8917 44.1601L36.6815 40.9849C36.978 40.9167 37.2885 41.01 37.4982 41.2304C37.7079 41.4508 37.7856 41.7656 37.7027 42.0583L34.0214 55.0484L41.6178 47.9095C41.8253 47.7144 42.1159 47.6347 42.394 47.6965C42.672 47.7583 42.9014 47.9537 43.0068 48.2183L46.7529 57.6296L50.0707 51.6886C50.198 51.4608 50.4216 51.3031 50.6789 51.2596C50.9362 51.2162 51.1992 51.2918 51.3942 51.4652L74.406 71.9357L57.1677 52.8031C56.8925 52.4977 56.8718 52.0402 57.1182 51.7112C57.3647 51.3821 57.8095 51.2732 58.18 51.4514L67.3861 55.8775L65.8206 51.7545C65.682 51.3895 65.8065 50.977 66.1238 50.7495C66.4412 50.5221 66.8719 50.5367 67.173 50.7852L73.67 56.1469L71.303 47.4722C71.2072 47.1211 71.3426 46.7477 71.6412 46.5396C71.9398 46.3315 72.3371 46.3337 72.6333 46.5452L83.2792 54.1444L77.2569 45.3068C77.0539 45.0089 77.058 44.6161 77.2672 44.3226C77.4764 44.0291 77.8463 43.897 78.194 43.9917L77.9681 44.8221C78.194 43.9917 78.1939 43.9916 78.194 43.9917L78.1946 43.9918L78.3393 44.0311C78.4341 44.0569 78.5733 44.0946 78.7505 44.1426C79.1049 44.2385 79.6112 44.3754 80.2188 44.5388C81.4342 44.8656 83.0543 45.2988 84.6738 45.7241C85.709 45.9959 86.7421 46.2641 87.6683 46.4991C86.7033 45.7304 85.5752 44.8401 84.4445 43.9489C84.2347 43.7835 84.0248 43.6181 83.8159 43.4535C82.5402 42.4482 81.3002 41.471 80.3347 40.7015C79.7733 40.2541 79.3006 39.8737 78.966 39.5973C78.7998 39.46 78.6611 39.343 78.5609 39.254C78.5123 39.211 78.4621 39.1652 78.4196 39.1223C78.3999 39.1025 78.3675 39.0691 78.3345 39.0284C78.3187 39.0088 78.2898 38.9718 78.2601 38.9227L78.259 38.921C78.241 38.8912 78.1616 38.7604 78.1391 38.5731L78.4461 38.5363C78.4452 38.108 78.6493 37.6988 78.8463 37.6222C78.8843 37.6166 78.9366 37.6117 78.9509 37.6109C78.9584 37.6106 78.9705 37.6102 78.9752 37.6101C78.9838 37.61 78.9908 37.61 78.9936 37.61C79.0119 37.61 79.0301 37.6105 79.0481 37.6117C79.0635 37.6122 79.0869 37.6129 79.1188 37.6138C79.197 37.616 79.3188 37.6193 79.4788 37.6235C79.7985 37.6319 80.2678 37.6439 80.8377 37.6584C81.9774 37.6872 83.5181 37.7258 85.0661 37.7643C86.453 37.7988 87.8387 37.8331 88.947 37.8605C88.4034 37.374 87.7817 36.8174 87.1565 36.2569C86.2659 35.4584 85.3675 34.6515 84.6775 34.0287C84.3326 33.7175 84.0387 33.4512 83.8235 33.2546C83.6323 33.08 83.4559 32.918 83.3937 32.8502M46.74 9.90166C46.74 9.90158 46.7407 9.89906 46.7417 9.89436C46.7404 9.89939 46.7399 9.90174 46.74 9.90166ZM82.7234 6.39785L82.3152 5.64018C82.6143 5.47908 82.9803 5.50896 83.2493 5.71654C83.5182 5.92412 83.6399 6.27062 83.5598 6.60079L82.7234 6.39785ZM81.1009 16.9633C81.101 16.9628 81.1019 16.9579 81.1029 16.9497C81.1012 16.9596 81.1007 16.9638 81.1009 16.9633ZM80.3547 16.0084C80.3515 16.0083 80.3497 16.0083 80.3497 16.0083C80.3497 16.0084 80.3513 16.0084 80.3547 16.0084ZM84.7514 32.6947C84.748 32.6989 84.749 32.6981 84.753 32.6928C84.7524 32.6935 84.7518 32.6941 84.7514 32.6947Z" fill="black"/>
<path d="M49.5152 22.4862C49.5152 22.5505 49.5152 22.6119 49.5152 22.6704C49.5152 22.7289 49.5181 22.7815 49.524 22.8283C49.524 22.9394 49.483 23.0125 49.4012 23.0476C49.3251 23.0827 49.1292 23.1178 48.8134 23.1529C48.7433 23.1587 48.6643 23.1646 48.5766 23.1704C48.4889 23.1821 48.4128 23.188 48.3485 23.188C48.2023 23.188 48.1088 23.1646 48.0678 23.1178C48.0327 23.0769 48.0152 22.9804 48.0152 22.8283V22.4862C48.0152 22.2172 48.0123 21.7581 48.0064 21.109C48.0006 20.4599 47.9976 20.0271 47.9976 19.8108C47.9976 19.3722 48.0064 18.9336 48.024 18.495C48.0473 18.0505 48.059 17.7698 48.059 17.6528C48.059 17.5183 48.0386 17.416 47.9976 17.3458C47.9275 17.2172 47.7754 17.0797 47.5415 16.9335C47.4128 16.8517 47.3485 16.7757 47.3485 16.7055C47.3485 16.6704 47.3602 16.6353 47.3836 16.6002C47.3953 16.5827 47.4479 16.5271 47.5415 16.4335C47.6935 16.2815 47.9041 16.1558 48.1731 16.0563C48.4479 15.9511 48.6994 15.8985 48.9275 15.8985C49.062 15.8985 49.176 15.9218 49.2696 15.9686C49.4158 16.0388 49.4889 16.1528 49.4889 16.3107C49.4889 16.3809 49.4655 16.4774 49.4187 16.6002C49.3953 16.6762 49.3661 16.8254 49.331 17.0476C49.3017 17.264 49.2871 17.454 49.2871 17.6178C49.2637 17.9219 49.252 18.223 49.252 18.5213C49.252 18.6792 49.252 18.8429 49.252 19.0125C49.252 19.1821 49.255 19.3575 49.2608 19.5388C49.2608 19.9306 49.3017 20.4482 49.3836 21.0915C49.4713 21.7289 49.5152 22.1938 49.5152 22.4862Z" fill="black"/>
<path d="M54.3615 19.6704C54.3615 20.6119 54.2007 21.4014 53.8791 22.0388C53.4872 22.8108 52.92 23.1967 52.1773 23.1967C51.4112 23.1967 50.8206 22.7874 50.4054 21.9687C50.0603 21.2903 49.8878 20.4803 49.8878 19.5388C49.8878 18.5798 50.0632 17.7669 50.4141 17.1002C50.8352 16.3049 51.4317 15.9072 52.2036 15.9072C52.958 15.9072 53.5253 16.3254 53.9054 17.1616C54.2095 17.8341 54.3615 18.6704 54.3615 19.6704ZM53.0984 19.4336C53.0984 18.5681 53.0106 17.9452 52.8352 17.5651C52.6831 17.2318 52.4638 17.0651 52.1773 17.0651C51.8147 17.0651 51.5516 17.3283 51.3878 17.8546C51.265 18.2523 51.2036 18.761 51.2036 19.3809C51.2036 19.9599 51.2709 20.4657 51.4054 20.8985C51.575 21.4423 51.8059 21.6997 52.0983 21.6704C52.5019 21.6295 52.7826 21.3634 52.9405 20.8722C53.0457 20.5388 53.0984 20.0593 53.0984 19.4336Z" fill="black"/>
<path d="M56.8925 20.495C56.834 20.7406 56.7521 20.9102 56.6468 21.0037C56.5767 21.0681 56.4889 21.1002 56.3837 21.1002C56.3252 21.0944 56.2872 21.0915 56.2696 21.0915H55.1731C55.0854 21.0973 55.0211 21.1002 54.9802 21.1002C54.91 21.1002 54.8632 21.0915 54.8398 21.0739C54.7989 21.0447 54.7784 20.9891 54.7784 20.9073C54.7784 20.8137 54.8106 20.6675 54.8749 20.4687C54.9392 20.2698 55.0036 20.1412 55.0679 20.0827C55.1381 20.0242 55.2492 19.995 55.4012 19.995H56.5065C56.6936 19.995 56.8135 20.0037 56.8661 20.0213C56.9188 20.0388 56.9451 20.0915 56.9451 20.1792C56.9451 20.2494 56.9275 20.3546 56.8925 20.495Z" fill="black"/>
<path d="M61.9751 20.3546C61.9751 20.4599 61.9751 20.5447 61.9751 20.609C61.9751 20.6733 61.9751 20.723 61.9751 20.7581C61.9751 20.9687 61.9313 21.0739 61.8435 21.0739C61.7734 21.0739 61.6681 21.0535 61.5278 21.0125C61.3932 20.9657 61.2851 20.9423 61.2032 20.9423C61.057 20.9423 60.9546 21.0067 60.8962 21.1353C60.8435 21.264 60.8172 21.4687 60.8172 21.7494C60.8172 21.8956 60.8172 22.0359 60.8172 22.1704C60.8172 22.2991 60.8201 22.419 60.826 22.5301C60.826 22.8108 60.788 22.9891 60.712 23.0652C60.6418 23.1353 60.4546 23.1704 60.1506 23.1704C60.0979 23.1704 60.0277 23.1733 59.94 23.1792C59.8523 23.185 59.7967 23.188 59.7734 23.188C59.6622 23.188 59.5862 23.1646 59.5453 23.1178C59.5044 23.071 59.4839 22.9628 59.4839 22.7932C59.4839 22.6646 59.5073 22.4219 59.5541 22.0652C59.5541 22.0535 59.5774 21.9365 59.6242 21.7143C59.6535 21.5681 59.6681 21.4599 59.6681 21.3897C59.6681 21.2727 59.6418 21.188 59.5891 21.1353C59.5365 21.0827 59.4342 21.0564 59.2821 21.0564C59.1886 21.0564 59.1125 21.0622 59.0541 21.0739C58.8201 21.109 58.6272 21.1412 58.4751 21.1704C58.3289 21.1938 58.1652 21.2347 57.9839 21.2932C57.8786 21.3283 57.788 21.3458 57.7119 21.3458C57.4663 21.3458 57.3435 21.1266 57.3435 20.688C57.3435 20.6119 57.3435 20.5505 57.3435 20.5037C57.3435 20.457 57.3552 20.3517 57.3786 20.1879C57.4371 19.6675 57.6242 19.0827 57.94 18.4336C58.2558 17.7844 58.6827 17.1353 59.2207 16.4862C59.3786 16.2932 59.5277 16.1675 59.6681 16.109C59.8143 16.0447 60.057 16.0125 60.3962 16.0125C60.5073 16.0066 60.5979 16.0037 60.6681 16.0037C60.7968 16.0037 60.8962 16.0154 60.9663 16.0388C61.0365 16.0563 61.0716 16.0973 61.0716 16.1616C61.0716 16.2435 61.0073 16.3487 60.8786 16.4774C60.5687 16.7932 60.2851 17.0973 60.0277 17.3897C59.6944 17.7698 59.4342 18.0944 59.247 18.3634C59.0073 18.7143 58.8377 19.033 58.7383 19.3195C58.6622 19.5476 58.6242 19.7113 58.6242 19.8108C58.6242 19.957 58.7003 20.0301 58.8523 20.0301C58.8874 20.0301 58.9312 20.0271 58.9839 20.0213C59.0365 20.0096 59.1067 19.992 59.1944 19.9686C59.4283 19.9043 59.5862 19.8283 59.6681 19.7406C59.7851 19.6119 59.8786 19.3692 59.9488 19.0125C59.9897 18.8137 60.0891 18.5681 60.247 18.2757C60.4049 17.9774 60.5599 17.7581 60.712 17.6178C60.9108 17.4365 61.0511 17.3458 61.133 17.3458C61.1973 17.3458 61.2295 17.3985 61.2295 17.5037C61.2295 17.5622 61.2178 17.6353 61.1944 17.723C61.1769 17.8107 61.1652 17.8634 61.1593 17.8809C61.0833 18.2376 61.0365 18.4686 61.019 18.5739C60.9839 18.7903 60.9663 18.9628 60.9663 19.0915C60.9663 19.302 61.0014 19.4686 61.0716 19.5915C61.1418 19.7143 61.2617 19.7757 61.4313 19.7757C61.5014 19.7757 61.5687 19.7669 61.633 19.7494C61.7032 19.7318 61.7471 19.723 61.7646 19.723C61.8406 19.723 61.8933 19.7669 61.9225 19.8546C61.9576 19.9365 61.9751 20.1032 61.9751 20.3546Z" fill="black"/>
<path d="M48.3919 31.2932C48.1872 31.6675 47.8627 31.9394 47.4182 32.109C47.0439 32.2493 46.579 32.3195 46.0235 32.3195C45.1697 32.3195 44.503 32.0154 44.0235 31.4072C43.5439 30.799 43.3042 29.954 43.3042 28.8721C43.3042 27.8195 43.5761 26.9101 44.12 26.144C44.6638 25.3721 45.351 24.9481 46.1814 24.8721C46.9124 24.8721 47.4767 24.9949 47.8744 25.2405C48.2077 25.4452 48.3744 25.7201 48.3744 26.0651C48.3744 26.3282 48.3451 26.5125 48.2866 26.6177C48.1989 26.7815 48.0176 26.8867 47.7428 26.9335C47.6609 26.9452 47.6083 26.9511 47.5849 26.9511C47.4445 26.9511 47.3597 26.875 47.3305 26.723C47.3071 26.5651 47.2779 26.4511 47.2428 26.3809C47.1843 26.2522 47.0439 26.1791 46.8217 26.1616C46.5995 26.144 46.4036 26.1353 46.234 26.1353C45.8129 26.1353 45.4474 26.3984 45.1375 26.9247C44.8334 27.4511 44.6814 28.0212 44.6814 28.6353C44.6814 29.3429 44.8042 29.8838 45.0498 30.2581C45.2954 30.6265 45.6317 30.8107 46.0586 30.8107C46.1931 30.8107 46.3305 30.7932 46.4708 30.7581C46.6989 30.6996 46.8802 30.5973 47.0147 30.4511C47.1551 30.299 47.2252 30.1294 47.2252 29.9423C47.2252 29.8253 47.196 29.7113 47.1375 29.6002C47.0849 29.4891 46.9942 29.3809 46.8656 29.2756C46.8013 29.223 46.7194 29.1645 46.62 29.1002C46.5556 29.0593 46.5235 29.03 46.5235 29.0125C46.5235 28.9891 46.62 28.9277 46.813 28.8283C46.9475 28.7581 47.0995 28.6908 47.2691 28.6265C47.351 28.5973 47.5761 28.5183 47.9445 28.3897C47.9855 28.378 48.0147 28.3692 48.0323 28.3633C48.0673 28.3517 48.0907 28.3458 48.1024 28.3458C48.1492 28.3458 48.1872 28.3721 48.2165 28.4248C48.2457 28.4715 48.272 28.5739 48.2954 28.7318C48.4416 29.6382 48.5147 30.2756 48.5147 30.6441C48.5147 30.9365 48.4738 31.1528 48.3919 31.2932Z" fill="black"/>
<path d="M54.5396 29.4511C54.5396 30.4394 54.294 31.1704 53.8027 31.6441C53.3173 32.1119 52.5542 32.3458 51.5132 32.3458C50.5542 32.3458 49.8524 32.1031 49.408 31.6178C48.9869 31.1558 48.7764 30.4598 48.7764 29.53C48.7764 28.3546 49.0542 27.2873 49.6097 26.3282C50.1945 25.3224 50.8729 24.8195 51.6448 24.8195C52.3758 24.8195 53.0454 25.3282 53.6536 26.3458C54.2442 27.3341 54.5396 28.3692 54.5396 29.4511ZM53.1185 29.1616C53.1185 28.5125 52.9635 27.8633 52.6536 27.2142C52.3436 26.5651 52.0162 26.2405 51.6711 26.2405C51.3203 26.2405 50.9869 26.5885 50.6711 27.2844C50.3553 27.9803 50.1974 28.6762 50.1974 29.3721C50.1974 29.8809 50.3261 30.2464 50.5834 30.4686C50.8115 30.6675 51.1565 30.7669 51.6185 30.7669C52.1273 30.7669 52.5045 30.6411 52.7501 30.3897C52.9957 30.1382 53.1185 29.7289 53.1185 29.1616Z" fill="black"/>
<path d="M60.5254 29.4511C60.5254 30.4394 60.2798 31.1704 59.7885 31.6441C59.3031 32.1119 58.54 32.3458 57.499 32.3458C56.54 32.3458 55.8382 32.1031 55.3938 31.6178C54.9727 31.1558 54.7622 30.4598 54.7622 29.53C54.7622 28.3546 55.04 27.2873 55.5955 26.3282C56.1803 25.3224 56.8587 24.8195 57.6306 24.8195C58.3616 24.8195 59.0312 25.3282 59.6394 26.3458C60.2301 27.3341 60.5254 28.3692 60.5254 29.4511ZM59.1043 29.1616C59.1043 28.5125 58.9493 27.8633 58.6394 27.2142C58.3295 26.5651 58.002 26.2405 57.6569 26.2405C57.3061 26.2405 56.9727 26.5885 56.6569 27.2844C56.3411 27.9803 56.1832 28.6762 56.1832 29.3721C56.1832 29.8809 56.3119 30.2464 56.5692 30.4686C56.7973 30.6675 57.1423 30.7669 57.6043 30.7669C58.1131 30.7669 58.4903 30.6411 58.7359 30.3897C58.9815 30.1382 59.1043 29.7289 59.1043 29.1616Z" fill="black"/>
<path d="M65.7568 30.8546C65.5697 31.2873 65.2977 31.6207 64.941 31.8546C64.5901 32.0827 64.1808 32.1967 63.7129 32.1967L61.248 32.1879C61.1427 32.1879 61.0638 32.1265 61.0112 32.0037C60.9585 31.8809 60.9322 31.7406 60.9322 31.5827C60.8854 31.033 60.862 30.3634 60.862 29.5739C60.862 28.7786 60.8854 28.0125 60.9322 27.2756C60.9848 26.5388 61.0609 25.9569 61.1603 25.53C61.2129 25.2961 61.2685 25.147 61.3269 25.0826C61.3913 25.0125 61.5082 24.9774 61.6778 24.9774L63.0813 24.9861C63.4147 24.9861 63.7714 25.1002 64.1515 25.3282C64.5316 25.5563 64.8621 25.8546 65.1428 26.223C65.3708 26.5212 65.5755 26.9686 65.7568 27.5651C65.9439 28.1616 66.0375 28.7552 66.0375 29.3458C66.0375 29.6265 66.017 29.8897 65.9761 30.1353C65.9352 30.3809 65.8621 30.6207 65.7568 30.8546ZM64.634 28.8721C64.634 28.1236 64.4556 27.4598 64.0989 26.8809C63.748 26.2961 63.3825 26.0037 63.0024 26.0037C62.9498 26.0037 62.8913 26.0125 62.827 26.03C62.593 26.106 62.4234 26.4481 62.3182 27.0563C62.2363 27.5242 62.1954 28.0943 62.1954 28.7669C62.1954 29.4394 62.2392 29.9394 62.327 30.2669C62.479 30.8224 62.7685 31.1002 63.1954 31.1002C63.7392 31.1002 64.134 30.8224 64.3796 30.2669C64.5492 29.8809 64.634 29.416 64.634 28.8721Z" fill="black"/>
<path d="M43.8776 39.5563C43.8776 40.1353 43.6993 40.5797 43.3425 40.8896C43.015 41.1703 42.5911 41.3107 42.0706 41.3107H39.4566C39.2402 41.3107 39.0969 41.2435 39.0267 41.1089C39.0033 41.0622 38.977 40.9189 38.9478 40.6791C38.8718 40.0943 38.8337 39.3838 38.8337 38.5475C38.8337 37.8399 38.8542 37.1411 38.8951 36.451C38.9419 35.7551 39.0004 35.1528 39.0706 34.644C39.0998 34.4276 39.1495 34.2843 39.2197 34.2142C39.2957 34.1381 39.4449 34.1001 39.6671 34.1001H41.5969C42.287 34.1001 42.7811 34.2112 43.0794 34.4335C43.325 34.6148 43.4624 34.8779 43.4917 35.2229C43.4917 35.527 43.4156 35.8224 43.2636 36.1089C43.1583 36.3078 42.9887 36.5387 42.7548 36.8019C42.6729 36.8955 42.6262 36.9481 42.6145 36.9598C42.5443 37.0417 42.5092 37.1089 42.5092 37.1616C42.5092 37.22 42.5618 37.299 42.6671 37.3984C43.0121 37.7083 43.2811 38.0124 43.4741 38.3107C43.7431 38.7259 43.8776 39.1411 43.8776 39.5563ZM41.2109 35.1177C40.6261 35.1762 40.2811 35.527 40.1759 36.1703C40.1349 36.4159 40.1144 36.6235 40.1144 36.7931C40.1144 36.9686 40.1349 37.0914 40.1759 37.1616C40.2168 37.2317 40.2811 37.2668 40.3688 37.2668C40.4332 37.2668 40.5209 37.2405 40.632 37.1879C40.749 37.1352 40.9244 37.0241 41.1583 36.8545C41.4683 36.6382 41.6963 36.4247 41.8425 36.2142C41.9887 36.0037 42.0618 35.8107 42.0618 35.6352C42.0618 35.4773 41.9975 35.3516 41.8688 35.258C41.746 35.1586 41.5764 35.1089 41.3601 35.1089C41.2957 35.1089 41.246 35.1118 41.2109 35.1177ZM42.1583 38.5037C41.8659 38.0592 41.6174 37.837 41.4127 37.837C41.3074 37.837 41.1759 37.8809 41.018 37.9686C40.9302 38.0212 40.749 38.1411 40.4741 38.3282C40.3747 38.3984 40.2957 38.4744 40.2373 38.5563C40.1846 38.6382 40.1583 38.7434 40.1583 38.8721C40.1583 39.3984 40.2577 39.761 40.4566 39.9598C40.632 40.1353 40.9244 40.223 41.3338 40.223C41.6495 40.223 41.9156 40.144 42.132 39.9861C42.3484 39.8282 42.4566 39.6148 42.4566 39.3458C42.4566 39.2171 42.4303 39.0826 42.3776 38.9423C42.3308 38.8019 42.2577 38.6557 42.1583 38.5037Z" fill="black"/>
<path d="M49.5617 37.4861C49.5617 38.6089 49.3804 39.5095 49.0178 40.1879C48.5675 41.0358 47.8716 41.4598 46.9301 41.4598C46.0646 41.4598 45.3833 41.0505 44.8862 40.2317C44.4418 39.5007 44.2196 38.6031 44.2196 37.5387C44.2196 36.9013 44.2517 36.3224 44.3161 35.8019C44.3862 35.2756 44.4886 34.7756 44.6231 34.3019C44.6523 34.1674 44.7371 34.1001 44.8775 34.1001H45.8775C46.0704 34.1001 46.1669 34.1381 46.1669 34.2142C46.1669 34.2493 46.1582 34.2931 46.1406 34.3458C45.9769 34.8428 45.857 35.3048 45.781 35.7317C45.7049 36.1586 45.6669 36.6206 45.6669 37.1177C45.6669 37.8312 45.7576 38.4276 45.9389 38.9072C46.1728 39.5212 46.5207 39.8282 46.9827 39.8282C47.4623 39.8282 47.8014 39.5797 48.0003 39.0826C48.164 38.6791 48.2459 38.068 48.2459 37.2493V36.8458C48.2459 36.3545 48.2313 35.9715 48.202 35.6966C48.1553 35.2346 48.0588 34.8048 47.9126 34.4072C47.8833 34.3194 47.8687 34.261 47.8687 34.2317C47.8687 34.1498 47.9506 34.1089 48.1143 34.1089H48.9477C49.0295 34.1089 49.0997 34.1206 49.1582 34.144C49.2167 34.1615 49.2576 34.1996 49.281 34.258C49.3979 34.5329 49.474 34.9627 49.5091 35.5475C49.5441 36.1265 49.5617 36.7727 49.5617 37.4861Z" fill="black"/>
<path d="M54.8474 39.9774C54.6602 40.4101 54.3883 40.7434 54.0316 40.9774C53.6807 41.2054 53.2714 41.3195 52.8035 41.3195L50.3386 41.3107C50.2333 41.3107 50.1544 41.2493 50.1017 41.1265C50.0491 41.0037 50.0228 40.8633 50.0228 40.7054C49.976 40.1557 49.9526 39.4861 49.9526 38.6967C49.9526 37.9013 49.976 37.1352 50.0228 36.3984C50.0754 35.6615 50.1515 35.0797 50.2509 34.6528C50.3035 34.4189 50.3591 34.2697 50.4175 34.2054C50.4819 34.1352 50.5988 34.1001 50.7684 34.1001L52.1719 34.1089C52.5053 34.1089 52.862 34.2229 53.2421 34.451C53.6222 34.6791 53.9526 34.9773 54.2333 35.3458C54.4614 35.644 54.6661 36.0914 54.8474 36.6879C55.0345 37.2844 55.1281 37.8779 55.1281 38.4686C55.1281 38.7493 55.1076 39.0124 55.0667 39.2581C55.0257 39.5037 54.9526 39.7434 54.8474 39.9774ZM53.7246 37.9949C53.7246 37.2464 53.5462 36.5826 53.1895 36.0037C52.8386 35.4189 52.4731 35.1265 52.093 35.1265C52.0404 35.1265 51.9819 35.1352 51.9175 35.1528C51.6836 35.2288 51.514 35.5709 51.4088 36.1791C51.3269 36.6469 51.286 37.2171 51.286 37.8896C51.286 38.5621 51.3298 39.0622 51.4175 39.3896C51.5696 39.9452 51.8591 40.223 52.286 40.223C52.8298 40.223 53.2246 39.9452 53.4702 39.3896C53.6398 39.0037 53.7246 38.5388 53.7246 37.9949Z" fill="black"/>
<path d="M60.4254 39.9774C60.2382 40.4101 59.9663 40.7434 59.6096 40.9774C59.2587 41.2054 58.8493 41.3195 58.3815 41.3195L55.9166 41.3107C55.8113 41.3107 55.7324 41.2493 55.6797 41.1265C55.6271 41.0037 55.6008 40.8633 55.6008 40.7054C55.554 40.1557 55.5306 39.4861 55.5306 38.6967C55.5306 37.9013 55.554 37.1352 55.6008 36.3984C55.6534 35.6615 55.7294 35.0797 55.8288 34.6528C55.8815 34.4189 55.937 34.2697 55.9955 34.2054C56.0598 34.1352 56.1768 34.1001 56.3464 34.1001L57.7499 34.1089C58.0832 34.1089 58.44 34.2229 58.8201 34.451C59.2002 34.6791 59.5306 34.9773 59.8113 35.3458C60.0394 35.644 60.2441 36.0914 60.4254 36.6879C60.6125 37.2844 60.7061 37.8779 60.7061 38.4686C60.7061 38.7493 60.6856 39.0124 60.6447 39.2581C60.6037 39.5037 60.5306 39.7434 60.4254 39.9774ZM59.3026 37.9949C59.3026 37.2464 59.1242 36.5826 58.7675 36.0037C58.4166 35.4189 58.0511 35.1265 57.671 35.1265C57.6183 35.1265 57.5599 35.1352 57.4955 35.1528C57.2616 35.2288 57.092 35.5709 56.9868 36.1791C56.9049 36.6469 56.8639 37.2171 56.8639 37.8896C56.8639 38.5621 56.9078 39.0622 56.9955 39.3896C57.1476 39.9452 57.437 40.223 57.864 40.223C58.4078 40.223 58.8026 39.9452 59.0482 39.3896C59.2178 39.0037 59.3026 38.5388 59.3026 37.9949Z" fill="black"/>
<path d="M66.2139 34.3282C66.2139 34.8955 66.1729 35.3458 66.0911 35.6791C66.015 36.0066 65.8688 36.3692 65.6525 36.7668C65.6349 36.7961 65.4478 37.0504 65.0911 37.53C64.7402 38.0037 64.4799 38.4306 64.3104 38.8107C64.053 39.3779 63.9244 39.9364 63.9244 40.4861C63.9244 40.5563 63.9244 40.6206 63.9244 40.6791C63.9302 40.7376 63.9449 40.8633 63.9682 41.0563C63.9799 41.1382 63.9595 41.2025 63.9068 41.2493C63.8601 41.2902 63.7899 41.3107 63.6963 41.3107H62.5472C62.4712 41.3107 62.4098 41.2873 62.363 41.2405C62.322 41.1879 62.3016 41.1031 62.3016 40.9861C62.3016 40.6119 62.3659 40.223 62.4946 39.8195C62.6583 39.4043 62.7665 39.1206 62.8191 38.9686C62.8542 38.8867 62.8717 38.8224 62.8717 38.7756C62.8717 38.7113 62.8513 38.6469 62.8103 38.5826C62.7753 38.5124 62.6992 38.4189 62.5823 38.3019C62.0326 37.723 61.6174 37.1177 61.3367 36.4861C61.0618 35.8487 60.9244 35.1966 60.9244 34.53C60.9244 34.4247 60.9448 34.3282 60.9858 34.2405C61.0326 34.1528 61.0998 34.1089 61.1875 34.1089H62.3454C62.439 34.1089 62.5063 34.1381 62.5472 34.1966C62.594 34.2493 62.6174 34.3165 62.6174 34.3984C62.6174 34.4276 62.6115 34.4715 62.5998 34.53C62.5472 34.7054 62.5209 34.8925 62.5209 35.0914C62.5209 35.6001 62.6641 36.1148 62.9507 36.6352C63.2197 37.1265 63.4565 37.3721 63.6612 37.3721C63.784 37.3721 64.0004 37.1382 64.3104 36.6703C64.6905 36.0972 64.8805 35.5212 64.8805 34.9422C64.8805 34.7668 64.8571 34.5767 64.8104 34.3721C64.7753 34.2025 64.8396 34.1177 65.0033 34.1177H65.8191C65.9361 34.1177 66.0297 34.1294 66.0998 34.1528C66.1759 34.1762 66.2139 34.2346 66.2139 34.3282Z" fill="black"/>
<path d="M68.3248 34.3019C68.3014 34.4013 68.1961 34.6908 68.009 35.1703C67.8569 35.568 67.7634 35.8925 67.7283 36.144C67.699 36.3955 67.6844 36.6411 67.6844 36.8809C67.6844 37.1206 67.6961 37.3779 67.7195 37.6528C67.778 38.3428 67.8072 38.6937 67.8072 38.7054C67.8131 38.7639 67.816 38.8078 67.816 38.837C67.816 38.8955 67.7809 38.9306 67.7107 38.9423C67.6406 38.954 67.5645 38.9657 67.4827 38.9774C67.4008 38.989 67.3277 38.9949 67.2634 38.9949C67.1639 38.9949 67.0733 38.9043 66.9914 38.723C66.9154 38.5358 66.8277 38.185 66.7283 37.6703C66.6815 37.413 66.6142 37.0154 66.5265 36.4773C66.4973 36.3019 66.4768 36.1206 66.4651 35.9335C66.4534 35.7463 66.4476 35.5709 66.4476 35.4072C66.4476 35.2434 66.4534 35.0767 66.4651 34.9072C66.4768 34.7317 66.4885 34.5767 66.5002 34.4422C66.5177 34.3019 66.547 34.2112 66.5879 34.1703C66.6288 34.1235 66.7078 34.1001 66.8248 34.1001L68.0704 34.1089C68.1581 34.1089 68.2224 34.1148 68.2634 34.1265C68.3101 34.1381 68.3335 34.1762 68.3335 34.2405C68.3335 34.2639 68.3306 34.2843 68.3248 34.3019ZM67.4476 41.3984C67.1435 41.3984 66.9037 41.3019 66.7283 41.1089C66.5587 40.9101 66.4739 40.682 66.4739 40.4247C66.4739 40.1733 66.5499 39.9598 66.7019 39.7844C66.8598 39.6089 67.085 39.5212 67.3774 39.5212C67.6815 39.5212 67.9242 39.6236 68.1055 39.8282C68.2692 40.0154 68.3511 40.2376 68.3511 40.4949C68.3511 40.7464 68.278 40.954 68.1318 41.1177C67.968 41.3049 67.74 41.3984 67.4476 41.3984Z" fill="black"/>
<path d="M70.5474 34.3019C70.524 34.4013 70.4188 34.6908 70.2316 35.1703C70.0796 35.568 69.986 35.8925 69.9509 36.144C69.9217 36.3955 69.9071 36.6411 69.9071 36.8809C69.9071 37.1206 69.9188 37.3779 69.9422 37.6528C70.0006 38.3428 70.0299 38.6937 70.0299 38.7054C70.0357 38.7639 70.0387 38.8078 70.0387 38.837C70.0387 38.8955 70.0036 38.9306 69.9334 38.9423C69.8632 38.954 69.7872 38.9657 69.7053 38.9774C69.6234 38.989 69.5503 38.9949 69.486 38.9949C69.3866 38.9949 69.296 38.9043 69.2141 38.723C69.1381 38.5358 69.0503 38.185 68.9509 37.6703C68.9041 37.413 68.8369 37.0154 68.7492 36.4773C68.7199 36.3019 68.6995 36.1206 68.6878 35.9335C68.6761 35.7463 68.6702 35.5709 68.6702 35.4072C68.6702 35.2434 68.6761 35.0767 68.6878 34.9072C68.6995 34.7317 68.7112 34.5767 68.7229 34.4422C68.7404 34.3019 68.7696 34.2112 68.8106 34.1703C68.8515 34.1235 68.9305 34.1001 69.0474 34.1001L70.293 34.1089C70.3808 34.1089 70.4451 34.1148 70.486 34.1265C70.5328 34.1381 70.5562 34.1762 70.5562 34.2405C70.5562 34.2639 70.5533 34.2843 70.5474 34.3019ZM69.6702 41.3984C69.3661 41.3984 69.1264 41.3019 68.9509 41.1089C68.7813 40.9101 68.6965 40.682 68.6965 40.4247C68.6965 40.1733 68.7726 39.9598 68.9246 39.7844C69.0825 39.6089 69.3077 39.5212 69.6001 39.5212C69.9042 39.5212 70.1468 39.6236 70.3281 39.8282C70.4919 40.0154 70.5737 40.2376 70.5737 40.4949C70.5737 40.7464 70.5006 40.954 70.3544 41.1177C70.1907 41.3049 69.9626 41.3984 69.6702 41.3984Z" fill="black"/>
<path d="M58.4332 217.871C60.2069 219.287 62.6603 220.002 65.7226 220.002C68.7284 220.002 71.1004 219.269 72.7714 217.828C74.4601 216.37 75.3169 214.511 75.3169 212.302C75.3169 210.135 74.5734 208.454 73.1077 207.296C72.1837 206.567 70.8136 205.982 69.0364 205.558L65.0996 204.612C63.2657 204.177 62.5328 203.883 62.239 203.713C61.6442 203.38 61.3716 202.92 61.3716 202.258C61.3716 201.515 61.669 200.955 62.2815 200.541C62.94 200.095 63.8463 199.872 64.9827 199.872C66.013 199.872 66.8803 200.049 67.5601 200.396C68.5372 200.902 69.0505 201.745 69.1249 202.966L69.1497 203.373H69.5568H74.145H74.5911L74.5769 202.927C74.4884 200.375 73.5325 198.392 71.7305 197.04C69.9604 195.712 67.8008 195.039 65.312 195.039C62.331 195.039 60.0299 195.762 58.465 197.181C56.8896 198.615 56.093 200.438 56.093 202.601C56.093 204.984 56.9321 206.768 58.589 207.901C59.5519 208.567 61.2123 209.162 63.6657 209.717L66.0838 210.259C67.4468 210.556 68.4522 210.9 69.0682 211.275C69.6028 211.608 69.8542 212.051 69.8542 212.656C69.8542 213.771 69.309 214.483 68.1407 214.9C67.4893 215.131 66.6148 215.247 65.5421 215.247C63.8073 215.247 62.5789 214.826 61.8921 213.994C61.5239 213.545 61.2654 212.829 61.1344 211.87L61.0813 211.498H60.706H56.1497H55.7178V211.93C55.7178 214.433 56.6347 216.433 58.4367 217.871H58.4332Z" fill="black"/>
<path d="M87.6866 220.048C91.0534 220.048 93.6733 219.11 95.4753 217.258C97.8544 215.003 99.0616 211.728 99.0616 207.526C99.0616 203.239 97.8544 199.964 95.4753 197.794C93.6733 195.945 91.0534 195.007 87.6902 195.007C84.3269 195.007 81.7071 195.945 79.905 197.794C77.5153 199.967 76.301 203.242 76.301 207.529C76.301 211.732 77.5118 215.006 79.9015 217.262C81.7035 219.113 84.3233 220.051 87.6902 220.051L87.6866 220.048ZM83.4985 201.847C84.5464 200.548 85.9165 199.914 87.6866 199.914C89.4568 199.914 90.8162 200.548 91.85 201.851C92.8944 203.168 93.4219 205.076 93.4219 207.526C93.4219 209.986 92.8944 211.898 91.8571 213.208C90.8198 214.504 89.4532 215.137 87.6866 215.137C85.9165 215.137 84.5464 214.507 83.4985 213.204C82.4399 211.895 81.9053 209.983 81.9053 207.526C81.9053 205.065 82.4399 203.157 83.4985 201.847Z" fill="black"/>
<path d="M105.572 219.414H106.008V218.979V204.375L114.529 219.195L114.653 219.414H114.904H119.677H120.109V218.979V196.137V195.701H119.677H115.23H114.798V196.137V210.45L106.507 195.921L106.383 195.701H106.132H101.126H100.694V196.137V218.979V219.414H101.126H105.572Z" fill="black"/>
<path d="M133.891 206.241H133.459V206.673V210.485V210.917H133.891H138.649C138.377 212.082 137.821 213.052 136.992 213.799C136.058 214.645 134.829 215.074 133.346 215.074C131.809 215.074 130.475 214.539 129.267 213.435C128.085 212.358 127.487 210.457 127.487 207.788C127.487 205.115 128.05 203.1 129.158 201.798C130.266 200.498 131.639 199.865 133.36 199.865C134.256 199.865 135.081 200.024 135.806 200.339C137.088 200.905 137.874 201.875 138.207 203.309L138.285 203.646H138.628H143.322H143.807L143.751 203.164C143.482 200.859 142.409 198.912 140.568 197.372C138.734 195.839 136.288 195.064 133.293 195.064C129.834 195.064 127.009 196.239 124.899 198.551C122.799 200.856 121.734 203.947 121.734 207.738C121.734 211.494 122.792 214.504 124.877 216.685C126.881 218.858 129.49 219.963 132.631 219.963C134.542 219.963 136.182 219.549 137.506 218.738C138.115 218.37 138.766 217.81 139.481 217.039L139.81 218.996L139.871 219.357H140.235H143.397H143.829V218.926V206.666V206.234H143.397H133.88L133.891 206.241Z" fill="black"/>
<path d="M166.901 210.769H166.391H161.665H161.335L161.247 211.087C160.943 212.199 160.567 213.038 160.121 213.576C159.318 214.578 158.178 215.063 156.627 215.063C155.076 215.063 153.904 214.49 152.924 213.307C151.936 212.118 151.433 210.273 151.433 207.827C151.433 205.37 151.911 203.454 152.856 202.134C153.78 200.842 155.009 200.215 156.613 200.215C158.202 200.215 159.356 200.654 160.146 201.557C160.585 202.063 160.957 202.842 161.247 203.869L161.335 204.184H161.661H166.434H166.89L166.865 203.731C166.788 202.23 166.232 200.721 165.209 199.245C163.353 196.611 160.397 195.276 156.422 195.276C153.444 195.276 150.952 196.268 149.015 198.225C146.803 200.459 145.684 203.663 145.684 207.752C145.684 209.632 145.928 211.342 146.41 212.829C146.895 214.33 147.638 215.651 148.612 216.748C150.569 218.943 153.285 220.055 156.684 220.055C159.438 220.055 161.736 219.23 163.516 217.601C165.276 215.98 166.384 213.852 166.812 211.279L166.897 210.776L166.901 210.769Z" fill="black"/>
<path d="M180.711 195.992L180.609 195.705H180.304H174.912H174.608L174.505 195.992L166.352 218.837L166.147 219.414H166.759H171.751H172.063L172.162 219.12L173.645 214.72H181.434L182.811 219.113L182.906 219.418H183.225H188.401H189.013L188.808 218.841L180.719 195.995L180.711 195.992ZM179.823 209.916H175.213L177.554 202.768L179.819 209.916H179.823Z" fill="black"/>
<path d="M206.11 195.701H205.766L205.688 196.038L201.985 212.171L198.257 196.038L198.179 195.701H197.836H190.89H190.458V196.137V218.979V219.414H190.89H195.34H195.772V218.979V203.858L199.178 219.074L199.256 219.414H199.603H204.237H204.58L204.658 219.074L208.096 203.83V218.979V219.414H208.528H212.978H213.41V218.979V196.137V195.701H212.978H206.11Z" fill="black"/>
<path d="M231.801 197.574C230.364 196.331 228.42 195.701 226.031 195.701H216.083H215.651V196.133V218.979V219.411H216.083H220.827H221.258V218.979V211.197H225.677C228.3 211.197 230.357 210.602 231.794 209.427C233.257 208.23 234 206.195 234 203.373C234 200.785 233.26 198.834 231.805 197.574H231.801ZM228.406 203.405C228.406 204.456 228.144 205.225 227.624 205.685C227.079 206.156 226.289 206.396 225.277 206.396H221.262V200.534H225.277C226.296 200.534 227.089 200.757 227.631 201.196C228.148 201.614 228.41 202.357 228.41 203.401L228.406 203.405Z" fill="black"/>
<path d="M49.0869 195.007H18.8386C15.316 195.007 12.4625 197.861 12.4625 201.383C12.4625 204.063 14.1159 206.357 16.4595 207.299H0.390137V220.051H30.6384C34.161 220.051 37.0145 217.198 37.0145 213.675C37.0145 210.995 35.3612 208.701 33.0175 207.759H49.0869V195.007Z" fill="black"/>
</svg>
