<svg width="89" height="26" viewBox="0 0 89 26" fill="none" xmlns="http://www.w3.org/2000/svg">
<path d="M12.9623 21.4099L13.1287 21.8814L13.1303 21.8809L12.9623 21.4099ZM14.0079 16.8416L14.2729 16.4176L14.2681 16.4146L14.0079 16.8416ZM10.7747 15.7317L10.6652 16.2196L10.6677 16.2201L10.7747 15.7317ZM8.26532 15.1687L8.15506 15.6564L8.15586 15.6566L8.26532 15.1687ZM3.15009 13.351L3.43494 12.9401L3.43253 12.9385L3.15009 13.351ZM16.2599 2.81496L15.9583 3.2138L15.961 3.21583L16.2599 2.81496ZM19.0427 8.57361V9.07361H19.56L19.5424 8.5566L19.0427 8.57361ZM14.2813 8.57361L13.7822 8.60363L13.8105 9.07361H14.2813V8.57361ZM12.4154 5.53343L12.6456 5.08955L12.6439 5.08871L12.4154 5.53343ZM6.47981 5.71037L6.19978 5.29615L6.47981 5.71037ZM6.46373 9.76395L6.7139 9.33096L6.70708 9.32716L6.46373 9.76395ZM9.55217 10.7452L9.66893 10.259L9.66798 10.2588L9.55217 10.7452ZM13.6379 11.7264L13.5212 12.2126L13.5215 12.2126L13.6379 11.7264ZM17.6915 13.4476L17.382 13.8402L17.3821 13.8403L17.6915 13.4476ZM17.3215 23.6941L17.6483 24.0725L17.6485 24.0723L17.3215 23.6941ZM3.02141 23.7263L2.70906 24.1167L2.71051 24.1179L3.02141 23.7263ZM0.367278 17.9033V17.4033H-0.132722V17.9033H0.367278ZM5.09645 17.9033L5.59172 17.8346L5.53192 17.4033H5.09645V17.9033ZM5.98116 20.3322L5.59453 20.6492L5.59532 20.6502L5.98116 20.3322ZM10.1152 22.296C11.3148 22.296 12.3261 22.1647 13.1287 21.8814L12.7959 20.9384C12.1401 21.1699 11.2534 21.296 10.1152 21.296V22.296ZM13.1303 21.8809C13.8885 21.6105 14.4987 21.2089 14.9178 20.6534C15.3396 20.0943 15.5374 19.4193 15.5374 18.6593H14.5374C14.5374 19.2397 14.3893 19.6934 14.1194 20.0512C13.8468 20.4125 13.4195 20.7161 12.7944 20.939L13.1303 21.8809ZM15.5374 18.6593C15.5374 17.6971 15.0994 16.9342 14.2729 16.4176L13.7429 17.2656C14.289 17.607 14.5374 18.0558 14.5374 18.6593H15.5374ZM14.2681 16.4146C13.5096 15.9525 12.3663 15.5684 10.8816 15.2433L10.6677 16.2201C12.1213 16.5384 13.1335 16.8943 13.7477 17.2686L14.2681 16.4146ZM10.8841 15.2438L8.37478 14.6808L8.15586 15.6566L10.6652 16.2196L10.8841 15.2438ZM8.37558 14.681C5.91448 14.1246 4.2929 13.5348 3.43494 12.9401L2.86524 13.762C3.89466 14.4755 5.68324 15.0976 8.15506 15.6564L8.37558 14.681ZM3.43253 12.9385C1.99949 11.9574 1.25333 10.4198 1.25333 8.21973H0.253333C0.253333 10.6737 1.10502 12.557 2.86765 13.7636L3.43253 12.9385ZM1.25333 8.21973C1.25333 6.23449 1.96808 4.60563 3.40613 3.29741L2.7332 2.5577C1.08281 4.0591 0.253333 5.95835 0.253333 8.21973H1.25333ZM3.40613 3.29741C4.8252 2.00645 6.95292 1.32034 9.87388 1.32034V0.320339C6.81099 0.320339 4.40256 1.03904 2.7332 2.5577L3.40613 3.29741ZM9.87388 1.32034C12.2789 1.32034 14.2978 1.9583 15.9583 3.21379L16.5614 2.41613C14.7045 1.01212 12.4662 0.320339 9.87388 0.320339V1.32034ZM15.961 3.21583C17.5903 4.4304 18.4615 6.19795 18.543 8.59062L19.5424 8.5566C19.4523 5.90911 18.4682 3.83756 16.5587 2.41408L15.961 3.21583ZM19.0427 8.07361H14.2813V9.07361H19.0427V8.07361ZM14.7804 8.54359C14.6853 6.96184 13.9771 5.77998 12.6456 5.08955L12.1853 5.9773C13.17 6.48793 13.7058 7.33286 13.7822 8.60363L14.7804 8.54359ZM12.6439 5.08871C11.7821 4.64582 10.7384 4.43826 9.53608 4.43826V5.43826C10.6286 5.43826 11.5045 5.62747 12.1869 5.97814L12.6439 5.08871ZM9.53608 4.43826C8.19766 4.43826 7.07026 4.70765 6.19978 5.29615L6.75985 6.12459C7.41214 5.68361 8.32226 5.43826 9.53608 5.43826V4.43826ZM6.19978 5.29615C5.30027 5.90426 4.83774 6.77826 4.83774 7.86584H5.83774C5.83774 7.10894 6.13659 6.54595 6.75985 6.12459L6.19978 5.29615ZM4.83774 7.86584C4.83774 8.36538 4.94916 8.82621 5.18921 9.23085C5.42903 9.63513 5.78097 9.95591 6.22038 10.2007L6.70708 9.32716C6.39583 9.15375 6.18477 8.94907 6.04926 8.72065C5.91397 8.49259 5.83774 8.21348 5.83774 7.86584H4.83774ZM6.21359 10.1969C6.7695 10.5181 7.87084 10.8588 9.43636 11.2316L9.66798 10.2588C8.08072 9.88085 7.1231 9.56746 6.71387 9.33101L6.21359 10.1969ZM9.43541 11.2313L13.5212 12.2126L13.7547 11.2402L9.66893 10.259L9.43541 11.2313ZM13.5215 12.2126C15.2787 12.6335 16.5509 13.1852 17.382 13.8402L18.001 13.0549C17.009 12.273 15.5788 11.6771 13.7544 11.2401L13.5215 12.2126ZM17.3821 13.8403C18.6558 14.8438 19.3148 16.3003 19.3148 18.2893H20.3148C20.3148 16.0532 19.5583 14.2818 18.0009 13.0548L17.3821 13.8403ZM19.3148 18.2893C19.3148 20.3079 18.5487 21.9723 16.9945 23.3158L17.6485 24.0723C19.4188 22.5419 20.3148 20.6031 20.3148 18.2893H19.3148ZM16.9947 23.3157C15.4638 24.6378 13.2585 25.3335 10.3082 25.3335V26.3335C13.4061 26.3335 15.8763 25.6029 17.6483 24.0725L16.9947 23.3157ZM10.3082 25.3335C7.29158 25.3335 4.98576 24.6474 3.3323 23.3347L2.71051 24.1179C4.59589 25.6147 7.14792 26.3335 10.3082 26.3335V25.3335ZM3.33375 23.3358C1.69445 22.0244 0.867278 20.2332 0.867278 17.9033H-0.132722C-0.132722 20.5062 0.809522 22.5971 2.70906 24.1167L3.33375 23.3358ZM0.367278 18.4033H5.09645V17.4033H0.367278V18.4033ZM4.60119 17.9719C4.75731 19.0982 5.07191 20.0119 5.59453 20.6492L6.36779 20.0152C6.01106 19.5801 5.73586 18.8745 5.59172 17.8346L4.60119 17.9719ZM5.59532 20.6502C6.53658 21.7923 8.09588 22.296 10.1152 22.296V21.296C8.231 21.296 7.03431 20.8239 6.367 20.0142L5.59532 20.6502ZM24.5536 23.115L24.9124 22.7667L24.9046 22.7587L24.8965 22.7511L24.5536 23.115ZM24.5536 3.5549L24.8894 3.92539L24.9012 3.91466L24.9124 3.9032L24.5536 3.5549ZM40.0923 3.5549L39.7336 3.9032L39.7443 3.91426L39.7557 3.92464L40.0923 3.5549ZM40.0923 23.115L39.7487 22.7518L39.741 22.7591L39.7336 22.7667L40.0923 23.115ZM37.0039 19.5118L37.3943 19.8242L37.3957 19.8224L37.0039 19.5118ZM36.9878 7.17416L36.5948 7.48334L36.5974 7.48651L36.9878 7.17416ZM32.323 25.3817C29.0246 25.3817 26.5819 24.4862 24.9124 22.7667L24.1949 23.4633C26.1071 25.4328 28.8439 26.3817 32.323 26.3817V25.3817ZM24.8965 22.7511C22.6217 20.6083 21.4504 17.4967 21.4504 13.335H20.4504C20.4504 17.6879 21.6813 21.0963 24.2108 23.479L24.8965 22.7511ZM21.4504 13.335C21.4504 9.08274 22.624 5.97835 24.8894 3.92539L24.2179 3.1844C21.679 5.48528 20.4504 8.90093 20.4504 13.335H21.4504ZM24.9124 3.9032C26.5819 2.18371 29.0246 1.28817 32.323 1.28817V0.288168C28.8439 0.288168 26.1071 1.23711 24.1949 3.20659L24.9124 3.9032ZM32.323 1.28817C35.6213 1.28817 38.0641 2.18371 39.7336 3.9032L40.4511 3.20659C38.5388 1.23711 35.802 0.288168 32.323 0.288168V1.28817ZM39.7557 3.92464C42.0108 5.97744 43.1794 9.08209 43.1794 13.335H44.1794C44.1794 8.90158 42.9567 5.48619 40.4289 3.18515L39.7557 3.92464ZM43.1794 13.335C43.1794 17.4973 42.0132 20.6092 39.7487 22.7518L40.436 23.4782C42.9543 21.0954 44.1794 17.6873 44.1794 13.335H43.1794ZM39.7336 22.7667C38.0641 24.4862 35.6213 25.3817 32.323 25.3817V26.3817C35.802 26.3817 38.5388 25.4328 40.4511 23.4633L39.7336 22.7667ZM37.3957 19.8224C38.6385 18.2545 39.2251 16.0692 39.2251 13.335H38.2251C38.2251 15.9412 37.6642 17.8738 36.612 19.2013L37.3957 19.8224ZM39.2251 13.335C39.2251 10.61 38.6325 8.42957 37.3782 6.86181L36.5974 7.48651C37.6595 8.81416 38.2251 10.7409 38.2251 13.335H39.2251ZM37.3808 6.86499C36.1324 5.27827 34.4285 4.48652 32.323 4.48652V5.48652C34.1423 5.48652 35.5483 6.15319 36.5948 7.48333L37.3808 6.86499ZM32.323 4.48652C30.219 4.48652 28.5066 5.27149 27.237 6.84397L28.015 7.47218C29.0831 6.14925 30.5021 5.48652 32.323 5.48652V4.48652ZM27.237 6.84397C25.9708 8.41218 25.3726 10.599 25.3726 13.335H26.3726C26.3726 10.7305 26.9434 8.79938 28.015 7.47218L27.237 6.84397ZM25.3726 13.335C25.3726 16.071 25.9708 18.2577 27.237 19.8259L28.015 19.1977C26.9434 17.8705 26.3726 15.9394 26.3726 13.335H25.3726ZM27.237 19.8259C28.5066 21.3984 30.219 22.1834 32.323 22.1834V21.1834C30.5021 21.1834 29.0831 20.5207 28.015 19.1977L27.237 19.8259ZM32.323 22.1834C34.4271 22.1834 36.1351 21.3983 37.3943 19.8242L36.6135 19.1995C35.5564 20.5208 34.1438 21.1834 32.323 21.1834V22.1834ZM65.0025 25.2222V25.7222H65.5025V25.2222H65.0025ZM60.0482 25.2222L59.6147 25.4715L59.7589 25.7222H60.0482V25.2222ZM50.3646 8.38058L50.7981 8.13135L49.8646 6.50788V8.38058H50.3646ZM50.3646 25.2222V25.7222H50.8646V25.2222H50.3646ZM45.748 25.2222H45.248V25.7222H45.748V25.2222ZM45.748 1.51202V1.01202H45.248V1.51202H45.748ZM50.9437 1.51202L51.378 1.26427L51.2341 1.01202H50.9437V1.51202ZM60.386 18.0641L59.9516 18.3119L60.886 19.9497V18.0641H60.386ZM60.386 1.51202V1.01202H59.886V1.51202H60.386ZM65.0025 1.51202H65.5025V1.01202H65.0025V1.51202ZM65.0025 24.7222H60.0482V25.7222H65.0025V24.7222ZM60.4816 24.973L50.7981 8.13135L49.9312 8.62981L59.6147 25.4715L60.4816 24.973ZM49.8646 8.38058V25.2222H50.8646V8.38058H49.8646ZM50.3646 24.7222H45.748V25.7222H50.3646V24.7222ZM46.248 25.2222V1.51202H45.248V25.2222H46.248ZM45.748 2.01202H50.9437V1.01202H45.748V2.01202ZM50.5094 1.75977L59.9516 18.3119L60.8203 17.8164L51.378 1.26427L50.5094 1.75977ZM60.886 18.0641V1.51202H59.886V18.0641H60.886ZM60.386 2.01202H65.0025V1.01202H60.386V2.01202ZM64.5025 1.51202V25.2222H65.5025V1.51202H64.5025ZM82.5294 24.6431L82.2704 24.2155L82.2676 24.2172L82.5294 24.6431ZM69.9826 22.5842L70.3504 22.2454L70.3441 22.2387L69.9826 22.5842ZM85.65 3.20101L85.3282 3.58365L85.3306 3.58567L85.65 3.20101ZM88.8028 8.91141V9.41141H89.3649L89.2994 8.85312L88.8028 8.91141ZM83.9289 8.91141L83.4418 9.02431L83.5315 9.41141H83.9289V8.91141ZM81.1782 5.51734L81.3801 5.05987L81.3774 5.05871L81.1782 5.51734ZM73.7467 7.15807L73.366 6.83384L73.3658 6.83409L73.7467 7.15807ZM82.5294 20.2357L82.8637 20.6075L82.8658 20.6057L82.5294 20.2357ZM84.4919 16.4556L84.9857 16.5339L85.0774 15.9556H84.4919V16.4556ZM79.0067 16.4556H78.5067V16.9556H79.0067V16.4556ZM79.0067 12.4985V11.9985H78.5067V12.4985H79.0067ZM88.8832 12.4985H89.3832V11.9985H88.8832V12.4985ZM88.8832 25.2222V25.7222H89.3832V25.2222H88.8832ZM85.6018 25.2222L85.1087 25.3053L85.179 25.7222H85.6018V25.2222ZM85.1031 22.2625L85.5962 22.1794L85.4174 21.1184L84.7217 21.9392L85.1031 22.2625ZM82.2676 24.2172C81.0551 24.9626 79.5425 25.3496 77.7037 25.3496V26.3496C79.6827 26.3496 81.3871 25.9323 82.7913 25.0691L82.2676 24.2172ZM77.7037 25.3496C74.6917 25.3496 72.2547 24.3127 70.3504 22.2454L69.6149 22.923C71.7213 25.2095 74.4316 26.3496 77.7037 26.3496V25.3496ZM70.3441 22.2387C68.363 20.1662 67.3459 17.3102 67.3459 13.6084H66.3459C66.3459 17.499 67.42 20.6268 69.6212 22.9297L70.3441 22.2387ZM67.3459 13.6084C67.3459 9.86461 68.3735 6.91681 70.3842 4.71219L69.6454 4.03833C67.4309 6.46638 66.3459 9.67401 66.3459 13.6084H67.3459ZM70.3842 4.71219C72.3912 2.51163 75.0446 1.40077 78.3954 1.40077V0.400767C74.7973 0.400767 71.8635 1.60623 69.6454 4.03833L70.3842 4.71219ZM78.3954 1.40077C81.323 1.40077 83.617 2.14428 85.3282 3.58364L85.9719 2.81838C84.0369 1.19075 81.4945 0.400767 78.3954 0.400767V1.40077ZM85.3306 3.58567C87.0696 5.02974 88.0537 6.81809 88.3062 8.96969L89.2994 8.85312C89.0158 6.43641 87.898 4.41782 85.9695 2.81635L85.3306 3.58567ZM88.8028 8.41141H83.9289V9.41141H88.8028V8.41141ZM84.416 8.79851C84.0069 7.03355 82.9896 5.76997 81.38 5.05988L80.9764 5.9748C82.2837 6.55157 83.1002 7.5507 83.4418 9.02431L84.416 8.79851ZM81.3774 5.05871C80.4923 4.67438 79.5172 4.48652 78.4598 4.48652V5.48652C79.3969 5.48652 80.2342 5.65253 80.9791 5.97597L81.3774 5.05871ZM78.4598 4.48652C76.4051 4.48652 74.6947 5.27414 73.366 6.83384L74.1273 7.48231C75.2651 6.1466 76.6968 5.48652 78.4598 5.48652V4.48652ZM73.3658 6.83409C72.0345 8.39894 71.4129 10.7033 71.4129 13.6567H72.4129C72.4129 10.8192 73.0138 8.79118 74.1275 7.48206L73.3658 6.83409ZM71.4129 13.6567C71.4129 16.6293 72.0876 18.8676 73.5707 20.2192L74.2443 19.4801C73.068 18.4081 72.4129 16.5177 72.4129 13.6567H71.4129ZM73.5707 20.2192C74.9864 21.5092 76.6166 22.1673 78.4437 22.1673V21.1673C76.8821 21.1673 75.4882 20.6136 74.2443 19.4801L73.5707 20.2192ZM78.4437 22.1673C80.2077 22.1673 81.6954 21.6578 82.8637 20.6075L82.1951 19.8639C81.2401 20.7224 80.004 21.1673 78.4437 21.1673V22.1673ZM82.8658 20.6057C84.0199 19.5565 84.7231 18.1895 84.9857 16.5339L83.998 16.3772C83.7674 17.8315 83.1623 18.9846 82.1931 19.8657L82.8658 20.6057ZM84.4919 15.9556H79.0067V16.9556H84.4919V15.9556ZM79.5067 16.4556V12.4985H78.5067V16.4556H79.5067ZM79.0067 12.9985H88.8832V11.9985H79.0067V12.9985ZM88.3832 12.4985V25.2222H89.3832V12.4985H88.3832ZM88.8832 24.7222H85.6018V25.7222H88.8832V24.7222ZM86.0948 25.1392L85.5962 22.1794L84.6101 22.3455L85.1087 25.3053L86.0948 25.1392ZM84.7217 21.9392C83.7824 23.0473 82.9652 23.7947 82.2704 24.2155L82.7884 25.0708C83.6164 24.5694 84.515 23.7296 85.4845 22.5858L84.7217 21.9392Z" fill="black"/>
</svg>
