<svg width="180" height="27" viewBox="0 0 180 27" fill="none" xmlns="http://www.w3.org/2000/svg">
<path fill-rule="evenodd" clip-rule="evenodd" d="M25.9123 3.68095C27.5818 1.96146 30.0246 1.06592 33.3229 1.06592C36.6213 1.06592 39.0641 1.96146 40.7336 3.68095L40.7443 3.69201L40.7557 3.70239C43.0108 5.75519 44.1794 8.85984 44.1794 13.1127C44.1794 17.2751 43.0131 20.387 40.7487 22.5296L40.741 22.5369L40.7336 22.5445C39.0641 24.2639 36.6213 25.1595 33.3229 25.1595C30.0246 25.1595 27.5818 24.2639 25.9123 22.5445L25.9045 22.5365L25.8964 22.5288C23.6217 20.386 22.4504 17.2744 22.4504 13.1127C22.4504 8.86049 23.624 5.7561 25.8894 3.70314L25.9012 3.69241L25.9123 3.68095ZM33.3229 0.065918C29.8507 0.065918 27.1178 1.01117 25.206 2.97286C22.6751 5.27362 21.4504 8.68555 21.4504 13.1127C21.4504 17.461 22.6787 20.8668 25.2027 23.2491C27.1145 25.2131 29.8486 26.1595 33.3229 26.1595C36.7975 26.1595 39.5317 25.213 41.4436 23.2487C43.9568 20.8662 45.1794 17.4606 45.1794 13.1127C45.1794 8.68598 43.9603 5.27418 41.4403 2.97326C39.5285 1.0113 36.7955 0.065918 33.3229 0.065918ZM4.4061 3.07516C5.82517 1.7842 7.95289 1.09809 10.8739 1.09809C13.2788 1.09809 15.2978 1.73605 16.9583 2.99154L16.961 2.99358C18.4707 4.11896 19.3295 5.71909 19.5122 7.85136H15.7324C15.5348 6.50434 14.8417 5.48753 13.6455 4.8673L13.6439 4.86646C12.7821 4.42357 11.7384 4.21601 10.5361 4.21601C9.19763 4.21601 8.07023 4.4854 7.19975 5.0739C6.30024 5.68201 5.83771 6.55601 5.83771 7.64359C5.83771 8.14313 5.94913 8.60396 6.18918 9.0086C6.42839 9.41184 6.77913 9.73202 7.21697 9.9766C7.77391 10.2972 8.87424 10.6374 10.4363 11.0093L14.5214 11.9904C16.2787 12.4113 17.551 12.963 18.382 13.618C19.6557 14.6216 20.3148 16.0781 20.3148 18.0671C20.3148 20.0857 19.5486 21.75 17.9945 23.0936C16.4636 24.4156 14.2583 25.1112 11.3082 25.1112C8.29191 25.1112 5.98627 24.4253 4.33285 23.1129C2.81337 21.8969 1.99188 20.2687 1.88038 18.181H5.67075C5.84323 19.1105 6.14031 19.8731 6.5945 20.427L6.59529 20.428C7.53655 21.57 9.09585 22.0737 11.1151 22.0737C12.3147 22.0737 13.3261 21.9425 14.1287 21.6592L14.1302 21.6586C14.8885 21.3883 15.4987 20.9867 15.9177 20.4312C16.3395 19.8721 16.5373 19.1971 16.5373 18.437C16.5373 17.4748 16.0994 16.7119 15.2729 16.1953L15.268 16.1924C14.5098 15.7303 13.3669 15.3464 11.8828 15.0213L11.8816 15.021L9.37483 14.4586C6.91413 13.9022 5.29279 13.3125 4.43491 12.7179L4.4325 12.7162C2.99946 11.7352 2.2533 10.1976 2.2533 7.99748C2.2533 6.01224 2.96805 4.38338 4.4061 3.07516ZM10.8739 0.0980892C7.81096 0.0980892 5.40254 0.816792 3.73317 2.33545C2.08278 3.83685 1.2533 5.7361 1.2533 7.99748C1.2533 10.4509 2.10459 12.3339 3.86638 13.5405C4.89598 14.2538 6.68494 14.8757 9.15583 15.4343L11.6652 15.9973L11.6677 15.9979C13.1193 16.3158 14.1307 16.6711 14.7452 17.0448C15.2897 17.386 15.5373 17.8344 15.5373 18.437C15.5373 19.0175 15.3893 19.4712 15.1194 19.8289C14.8469 20.1901 14.4198 20.4936 13.7951 20.7165C13.1394 20.9477 12.2529 21.0737 11.1151 21.0737C9.23147 21.0737 8.03491 20.6019 7.3675 19.7926C7.0109 19.3575 6.73579 18.652 6.59169 17.6124L6.5319 17.181H0.867249V17.681C0.867249 20.284 1.80949 22.3748 3.70903 23.8945L3.71048 23.8956C5.59586 25.3925 8.14789 26.1112 11.3082 26.1112C14.4061 26.1112 16.8765 25.3805 18.6485 23.8501C20.4187 22.3197 21.3148 20.3809 21.3148 18.0671C21.3148 15.831 20.5583 14.0596 19.001 12.8326C18.009 12.0507 16.5788 11.4549 14.7544 11.0179L10.6679 10.0365C9.08069 9.6586 8.1231 9.34516 7.71387 9.10871L7.70705 9.10491C7.3958 8.9315 7.18474 8.72682 7.04923 8.4984C6.91394 8.27034 6.83771 7.99123 6.83771 7.64359C6.83771 6.88669 7.13656 6.3237 7.75982 5.90234C8.41211 5.46136 9.32223 5.21601 10.5361 5.21601C11.6282 5.21601 12.5039 5.4051 13.1862 5.75556C14.1704 6.26624 14.7058 7.11103 14.7822 8.38138L14.8105 8.85136H20.56L20.5424 8.33435C20.4523 5.6875 19.4687 3.61631 17.5601 2.19287C15.7034 0.789543 13.4655 0.0980892 10.8739 0.0980892ZM71.3842 4.48994C73.3912 2.28938 76.0445 1.17852 79.3954 1.17852C82.323 1.17852 84.617 1.92203 86.3281 3.36139L86.3306 3.36342C87.9169 4.68072 88.875 6.28449 89.2227 8.18916H85.3141C84.8515 6.62561 83.8693 5.49467 82.38 4.83762L82.3773 4.83646C81.4922 4.45213 80.5172 4.26427 79.4597 4.26427C77.405 4.26427 75.6945 5.05213 74.3658 6.61184C73.0345 8.17669 72.4129 10.481 72.4129 13.4344C72.4129 16.4071 73.0875 18.6453 74.5707 19.9969C75.9863 21.287 77.6165 21.9451 79.4436 21.9451C81.2077 21.9451 82.6954 21.4356 83.8637 20.3853L83.8657 20.3834C85.0198 19.3342 85.7231 17.9672 85.9857 16.3116L86.0774 15.7333H80.5066V12.7763H89.3832V24.5H87.0246L86.4174 20.8961L85.7217 21.7169C84.7824 22.8251 83.9652 23.5724 83.2704 23.9932L83.2675 23.9949C82.0551 24.7403 80.5424 25.1273 78.7037 25.1273C75.6917 25.1273 73.2547 24.0904 71.3504 22.0231L71.344 22.0164C69.363 19.944 68.3459 17.088 68.3459 13.3862C68.3459 9.64236 69.3735 6.69456 71.3842 4.48994ZM79.3954 0.178517C75.7972 0.178517 72.8635 1.38398 70.6453 3.81608C68.4309 6.24413 67.3459 9.45176 67.3459 13.3862C67.3459 17.2748 68.4188 20.4015 70.6179 22.704C72.7238 24.9884 75.4332 26.1273 78.7037 26.1273C80.6821 26.1273 82.3861 25.7103 83.7901 24.8476C84.4142 24.4692 85.0786 23.8987 85.7831 23.1506L86.1789 25.5H90.3832V11.7763H79.5066V16.7333H84.8828C84.5956 17.9182 84.0306 18.8817 83.1942 19.6424C82.2393 20.5004 81.0035 20.9451 79.4436 20.9451C77.8821 20.9451 76.4882 20.3914 75.2443 19.2578C74.068 18.1858 73.4129 16.2955 73.4129 13.4344C73.4129 10.597 74.0137 8.56893 75.1275 7.25981C76.2653 5.92427 77.6969 5.26427 79.4597 5.26427C80.3964 5.26427 81.2332 5.43008 81.9777 5.75314C83.2843 6.33 84.1003 7.32895 84.4417 8.80206L84.5315 9.18916H90.3649L90.2994 8.63087C90.0158 6.21472 88.8985 4.19652 86.9708 2.59522C85.036 0.968206 82.4939 0.178517 79.3954 0.178517ZM52.2341 0.789771H46.248V25.5H51.8646V10.031L60.7589 25.5H66.5025V0.789771H60.8859V15.9563L52.2341 0.789771ZM47.248 24.5V1.78977H51.6533L61.8859 19.7274V1.78977H65.5025V24.5H61.3374L50.8646 6.28563V24.5H47.248ZM33.3229 4.26427C31.2189 4.26427 29.5066 5.04924 28.2369 6.62172C26.9707 8.18993 26.3726 10.3767 26.3726 13.1127C26.3726 15.8487 26.9707 18.0355 28.2369 19.6037C29.5066 21.1762 31.2189 21.9611 33.3229 21.9611C35.427 21.9611 37.135 21.176 38.3943 19.6019L38.3957 19.6002C39.6384 18.0322 40.225 15.8469 40.225 13.1127C40.225 10.3887 39.6328 8.20889 38.3796 6.64126C37.1313 5.05553 35.4278 4.26427 33.3229 4.26427ZM29.015 7.24993C30.0831 5.927 31.5021 5.26427 33.3229 5.26427C35.1423 5.26427 36.5483 5.93094 37.5948 7.26108L37.5973 7.26426C38.6595 8.59191 39.225 10.5187 39.225 13.1127C39.225 15.7184 38.6644 17.6507 37.6127 18.9782C36.5557 20.2989 35.1433 20.9611 33.3229 20.9611C31.5021 20.9611 30.0831 20.2984 29.015 18.9755C27.9434 17.6483 27.3726 15.7171 27.3726 13.1127C27.3726 10.5083 27.9434 8.57713 29.015 7.24993ZM102.97 25.6595C105.726 25.6595 107.989 24.8498 109.759 23.2305C111.517 21.6113 112.611 19.5094 113.04 16.925H108.134C107.801 18.1475 107.383 19.0644 106.879 19.6756C105.968 20.8123 104.643 21.3807 102.906 21.3807C101.212 21.3807 99.8122 20.7212 98.7077 19.4022C97.6139 18.0724 97.067 16.0778 97.067 13.4183C97.067 10.7588 97.5871 8.70522 98.6273 7.25752C99.6675 5.79909 101.088 5.06987 102.89 5.06987C104.659 5.06987 105.994 5.58461 106.895 6.61409C107.399 7.19318 107.812 8.05108 108.134 9.18779H113.088C113.013 7.70792 112.466 6.2334 111.448 4.76425C109.603 2.14765 106.686 0.839355 102.697 0.839355C99.7157 0.839355 97.26 1.81522 95.3297 3.76694C93.1099 6.0082 92 9.19852 92 13.3379C92 17.1663 92.9759 20.1796 94.9276 22.378C96.8793 24.5657 99.5602 25.6595 102.97 25.6595ZM119.32 20.126H128.055L129.583 25H134.956L126.559 1.28975H120.961L112.5 25H117.68L119.32 20.126ZM123.712 6.71061L126.671 16.0403H120.655L123.712 6.71061ZM140.617 25H136V1.28975H143.206L147.517 19.933L151.796 1.28975H158.922V25H154.305V8.96259C154.305 8.50147 154.311 7.85805 154.322 7.03232C154.332 6.19587 154.338 5.55244 154.338 5.10205L149.85 25H145.04L140.584 5.10205C140.584 5.55244 140.59 6.19587 140.6 7.03232C140.611 7.85805 140.617 8.50147 140.617 8.96259V25ZM166.367 16.4746H171.402C174.029 16.4746 176.05 15.8955 177.466 14.7373C178.881 13.5792 179.589 11.6006 179.589 8.80174C179.589 6.23876 178.881 4.34602 177.466 3.12351C176.05 1.90101 174.152 1.28975 171.771 1.28975H161.445V25H166.367V16.4746ZM174.683 8.83391C174.683 10.0671 174.361 10.9679 173.718 11.5363C173.064 12.1047 172.152 12.3888 170.983 12.3888H166.367V5.40767H170.983C172.152 5.40767 173.058 5.6704 173.702 6.19587C174.356 6.72133 174.683 7.60068 174.683 8.83391Z" fill="black"/>
</svg>
