<svg width="208" height="26" viewBox="0 0 208 26" fill="none" xmlns="http://www.w3.org/2000/svg">
<path d="M10.5985 21.05C11.7674 21.05 12.7164 20.9213 13.4457 20.6639C14.829 20.1706 15.5207 19.2537 15.5207 17.9133C15.5207 17.1304 15.1775 16.5245 14.4912 16.0956C13.8049 15.6774 12.7272 15.3074 11.258 14.9857L8.74866 14.4227C6.28219 13.865 4.57712 13.2592 3.63343 12.605C2.03559 11.5112 1.23667 9.80075 1.23667 7.47369C1.23667 5.35039 2.00878 3.58633 3.553 2.18152C5.09722 0.776712 7.36529 0.0743065 10.3572 0.0743065C12.8559 0.0743065 14.9845 0.739179 16.7432 2.06892C18.5126 3.38794 19.4402 5.3075 19.526 7.82758H14.7647C14.6789 6.40132 14.0569 5.38792 12.8987 4.78739C12.1266 4.39062 11.1669 4.19223 10.0194 4.19223C8.74329 4.19223 7.72454 4.4496 6.96315 4.96434C6.20177 5.47908 5.82107 6.19757 5.82107 7.11981C5.82107 7.96699 6.1964 8.59969 6.94707 9.01791C7.42964 9.29673 8.45911 9.6238 10.0355 9.99914L14.1213 10.9804C15.9121 11.4093 17.2633 11.983 18.1748 12.7015C19.5904 13.8168 20.2981 15.4307 20.2981 17.5433C20.2981 19.7095 19.467 21.5111 17.8049 22.9481C16.1534 24.3743 13.8156 25.0874 10.7915 25.0874C7.70309 25.0874 5.27416 24.385 3.50474 22.9802C1.73532 21.5647 0.850615 19.6237 0.850615 17.1572H5.57979C5.72992 18.2403 6.02482 19.05 6.4645 19.5862C7.26878 20.562 8.64678 21.05 10.5985 21.05ZM37.004 15.3396V0.765988H42.0388V15.3396C42.0388 17.8596 41.6474 19.8221 40.8646 21.2269C39.4061 23.8006 36.6233 25.0874 32.5161 25.0874C28.4089 25.0874 25.6208 23.8006 24.1516 21.2269C23.3688 19.8221 22.9774 17.8596 22.9774 15.3396V0.765988H28.0122V15.3396C28.0122 16.9696 28.2052 18.1599 28.5912 18.9106C29.1918 20.2403 30.5001 20.9052 32.5161 20.9052C34.5215 20.9052 35.8244 20.2403 36.4249 18.9106C36.811 18.1599 37.004 16.9696 37.004 15.3396ZM56.6214 24.4762H45.8762V0.765988H57.3935C60.2996 0.808883 62.3586 1.6507 63.5704 3.29143C64.2996 4.29946 64.6642 5.50589 64.6642 6.9107C64.6642 8.3584 64.2996 9.52193 63.5704 10.4013C63.1629 10.8946 62.5624 11.345 61.7688 11.7525C62.9806 12.1921 63.8921 12.8892 64.5034 13.8436C65.1253 14.798 65.4363 15.9562 65.4363 17.3181C65.4363 18.7229 65.0824 19.9829 64.3747 21.0982C63.9243 21.8382 63.3613 22.4601 62.6857 22.9641C61.9243 23.5432 61.0235 23.94 59.9833 24.1545C58.9538 24.369 57.8332 24.4762 56.6214 24.4762ZM56.5088 14.0366H50.6054V20.3583H56.4284C57.4686 20.3583 58.2782 20.2189 58.8573 19.9401C59.9082 19.4253 60.4337 18.4387 60.4337 16.9803C60.4337 15.7471 59.9243 14.8999 58.9056 14.4388C58.3372 14.1814 57.5383 14.0474 56.5088 14.0366ZM58.9699 9.51657C59.6133 9.13051 59.935 8.43883 59.935 7.44152C59.935 6.33698 59.5061 5.60776 58.6482 5.25388C57.9083 5.00723 56.9646 4.88391 55.8171 4.88391H50.6054V10.1117H56.4284C57.4686 10.1117 58.3158 9.91335 58.9699 9.51657ZM77.22 21.05C78.3889 21.05 79.3379 20.9213 80.0672 20.6639C81.4505 20.1706 82.1422 19.2537 82.1422 17.9133C82.1422 17.1304 81.799 16.5245 81.1127 16.0956C80.4264 15.6774 79.3487 15.3074 77.8795 14.9857L75.3702 14.4227C72.9037 13.865 71.1986 13.2592 70.2549 12.605C68.6571 11.5112 67.8582 9.80075 67.8582 7.47369C67.8582 5.35039 68.6303 3.58633 70.1745 2.18152C71.7187 0.776712 73.9868 0.0743065 76.9787 0.0743065C79.4774 0.0743065 81.606 0.739179 83.3647 2.06892C85.1341 3.38794 86.0617 5.3075 86.1475 7.82758H81.3862C81.3004 6.40132 80.6784 5.38792 79.5203 4.78739C78.7481 4.39062 77.7884 4.19223 76.6409 4.19223C75.3648 4.19223 74.346 4.4496 73.5847 4.96434C72.8233 5.47908 72.4426 6.19757 72.4426 7.11981C72.4426 7.96699 72.8179 8.59969 73.5686 9.01791C74.0511 9.29673 75.0806 9.6238 76.657 9.99914L80.7428 10.9804C82.5336 11.4093 83.8848 11.983 84.7963 12.7015C86.2119 13.8168 86.9196 15.4307 86.9196 17.5433C86.9196 19.7095 86.0885 21.5111 84.4264 22.9481C82.7749 24.3743 80.4371 25.0874 77.413 25.0874C74.3246 25.0874 71.8957 24.385 70.1262 22.9802C68.3568 21.5647 67.4721 19.6237 67.4721 17.1572H72.2013C72.3514 18.2403 72.6463 19.05 73.086 19.5862C73.8903 20.562 75.2683 21.05 77.22 21.05ZM106.328 22.7068C104.558 24.3261 102.296 25.1357 99.5398 25.1357C96.1296 25.1357 93.4487 24.0419 91.497 21.8542C89.5452 19.6559 88.5694 16.6425 88.5694 12.8141C88.5694 8.67475 89.6793 5.48444 91.8991 3.24317C93.8294 1.29145 96.2851 0.315591 99.2663 0.315591C103.256 0.315591 106.172 1.62389 108.017 4.24048C109.036 5.70964 109.583 7.18415 109.658 8.66403H104.703C104.382 7.52731 103.969 6.66941 103.465 6.09033C102.564 5.06085 101.229 4.54611 99.4593 4.54611C97.6578 4.54611 96.2369 5.27532 95.1967 6.73375C94.1565 8.18146 93.6363 10.2351 93.6363 12.8945C93.6363 15.554 94.1833 17.5487 95.2771 18.8784C96.3816 20.1974 97.7811 20.8569 99.4754 20.8569C101.213 20.8569 102.537 20.2886 103.449 19.1519C103.953 18.5406 104.371 17.6237 104.703 16.4012H109.609C109.18 18.9856 108.087 21.0875 106.328 22.7068ZM122.487 15.1787H117.372V24.4762H112.53V0.765988H124.16C125.822 0.798159 127.098 1.00191 127.988 1.37724C128.889 1.75257 129.65 2.30485 130.272 3.03406C130.787 3.63459 131.195 4.29946 131.495 5.02868C131.795 5.75789 131.945 6.58898 131.945 7.52195C131.945 8.64794 131.661 9.75785 131.093 10.8517C130.524 11.9348 129.586 12.7015 128.278 13.1519C129.372 13.5916 130.144 14.2189 130.594 15.0339C131.055 15.8382 131.286 17.0714 131.286 18.7336V20.3261C131.286 21.4092 131.329 22.1438 131.414 22.5298C131.543 23.1411 131.843 23.5915 132.315 23.881V24.4762H126.862C126.712 23.9507 126.605 23.5271 126.54 23.2054C126.412 22.5406 126.342 21.8596 126.331 21.1626L126.299 18.9588C126.278 17.4468 125.999 16.4387 125.463 15.9347C124.937 15.4307 123.945 15.1787 122.487 15.1787ZM125.495 10.8678C126.481 10.4174 126.975 9.52729 126.975 8.19755C126.975 6.76056 126.498 5.79543 125.543 5.30213C125.007 5.02332 124.203 4.88391 123.13 4.88391H117.372V11.2538H122.986C124.101 11.2538 124.937 11.1251 125.495 10.8678ZM134.85 0.765988H139.772V24.4762H134.85V0.765988ZM154.242 24.4762H143.497V0.765988H155.014C157.92 0.808883 159.979 1.6507 161.191 3.29143C161.92 4.29946 162.285 5.50589 162.285 6.9107C162.285 8.3584 161.92 9.52193 161.191 10.4013C160.783 10.8946 160.183 11.345 159.389 11.7525C160.601 12.1921 161.513 12.8892 162.124 13.8436C162.746 14.798 163.057 15.9562 163.057 17.3181C163.057 18.7229 162.703 19.9829 161.995 21.0982C161.545 21.8382 160.982 22.4601 160.306 22.9641C159.545 23.5432 158.644 23.94 157.604 24.1545C156.574 24.369 155.454 24.4762 154.242 24.4762ZM154.129 14.0366H148.226V20.3583H154.049C155.089 20.3583 155.899 20.2189 156.478 19.9401C157.529 19.4253 158.054 18.4387 158.054 16.9803C158.054 15.7471 157.545 14.8999 156.526 14.4388C155.958 14.1814 155.159 14.0474 154.129 14.0366ZM156.59 9.51657C157.234 9.13051 157.555 8.43883 157.555 7.44152C157.555 6.33698 157.127 5.60776 156.269 5.25388C155.529 5.00723 154.585 4.88391 153.438 4.88391H148.226V10.1117H154.049C155.089 10.1117 155.936 9.91335 156.59 9.51657ZM182.738 14.1171H171.221V20.2135H184.347V24.4762H166.379V0.765988H183.768V4.96434H171.221V9.99914H182.738V14.1171ZM197.434 24.4762H187.219V0.765988H197.434C198.903 0.787436 200.125 0.959016 201.101 1.28073C202.763 1.82764 204.109 2.83031 205.139 4.28874C205.964 5.46835 206.527 6.74448 206.828 8.11712C207.128 9.48976 207.278 10.7981 207.278 12.042C207.278 15.1948 206.645 17.865 205.38 20.0527C203.664 23.0017 201.015 24.4762 197.434 24.4762ZM201.117 6.81418C200.356 5.52733 198.849 4.88391 196.597 4.88391H192.029V20.3583H196.597C198.935 20.3583 200.565 19.2055 201.487 16.8999C201.991 15.6345 202.243 14.1278 202.243 12.3798C202.243 9.96696 201.868 8.11176 201.117 6.81418Z" fill="black"/>
</svg>
