<svg width="179" height="38" viewBox="0 0 179 38" fill="none" xmlns="http://www.w3.org/2000/svg">
<path d="M19.7371 6.28979H20.2371V5.78979H19.7371V6.28979ZM19.7371 10.4881V10.9881H20.2371V10.4881H19.7371ZM12.6433 10.4881V9.98814H12.1433V10.4881H12.6433ZM12.6433 30V30.5H13.1433V30H12.6433ZM7.65676 30H7.15676V30.5H7.65676V30ZM7.65676 10.4881H8.15676V9.98814H7.65676V10.4881ZM0.530826 10.4881H0.0308256V10.9881H0.530826V10.4881ZM0.530826 6.28979V5.78979H0.0308256V6.28979H0.530826ZM19.2371 6.28979V10.4881H20.2371V6.28979H19.2371ZM19.7371 9.98814H12.6433V10.9881H19.7371V9.98814ZM12.1433 10.4881V30H13.1433V10.4881H12.1433ZM12.6433 29.5H7.65676V30.5H12.6433V29.5ZM8.15676 30V10.4881H7.15676V30H8.15676ZM7.65676 9.98814H0.530826V10.9881H7.65676V9.98814ZM1.03083 10.4881V6.28979H0.0308256V10.4881H1.03083ZM0.530826 6.78979H19.7371V5.78979H0.530826V6.78979ZM35.1407 30H34.6407V30.5H35.1407V30ZM35.1407 19.4157H35.6407V18.9157H35.1407V19.4157ZM25.8753 19.4157V18.9157H25.3753V19.4157H25.8753ZM25.8753 30V30.5H26.3753V30H25.8753ZM20.9692 30H20.4692V30.5H20.9692V30ZM20.9692 6.28979V5.78979H20.4692V6.28979H20.9692ZM25.8753 6.28979H26.3753V5.78979H25.8753V6.28979ZM25.8753 15.3299H25.3753V15.8299H25.8753V15.3299ZM35.1407 15.3299V15.8299H35.6407V15.3299H35.1407ZM35.1407 6.28979V5.78979H34.6407V6.28979H35.1407ZM40.0629 6.28979H40.5629V5.78979H40.0629V6.28979ZM40.0629 30V30.5H40.5629V30H40.0629ZM35.6407 30V19.4157H34.6407V30H35.6407ZM35.1407 18.9157H25.8753V19.9157H35.1407V18.9157ZM25.3753 19.4157V30H26.3753V19.4157H25.3753ZM25.8753 29.5H20.9692V30.5H25.8753V29.5ZM21.4692 30V6.28979H20.4692V30H21.4692ZM20.9692 6.78979H25.8753V5.78979H20.9692V6.78979ZM25.3753 6.28979V15.3299H26.3753V6.28979H25.3753ZM25.8753 15.8299H35.1407V14.8299H25.8753V15.8299ZM35.6407 15.3299V6.28979H34.6407V15.3299H35.6407ZM35.1407 6.78979H40.0629V5.78979H35.1407V6.78979ZM39.5629 6.28979V30H40.5629V6.28979H39.5629ZM40.0629 29.5H35.1407V30.5H40.0629V29.5ZM57.0428 25.1261L57.5199 24.9765L57.4101 24.6261H57.0428V25.1261ZM48.3083 25.1261V24.6261H47.9491L47.8345 24.9665L48.3083 25.1261ZM46.6676 30V30.5H47.0269L47.1415 30.1595L46.6676 30ZM41.488 30L41.0171 29.832L40.7787 30.5H41.488V30ZM49.9491 6.28979V5.78979H49.5966L49.4782 6.12175L49.9491 6.28979ZM55.5469 6.28979L56.0182 6.12288L55.9002 5.78979H55.5469V6.28979ZM63.9436 30V30.5H64.6511L64.4149 29.8331L63.9436 30ZM58.571 30L58.0939 30.1496L58.2037 30.5H58.571V30ZM55.6595 21.0403V21.5403H56.3427L56.1361 20.8891L55.6595 21.0403ZM52.6997 11.7106L53.1763 11.5595L52.7074 10.0812L52.2246 11.555L52.6997 11.7106ZM49.6435 21.0403L49.1683 20.8847L48.9535 21.5403H49.6435V21.0403ZM57.0428 24.6261H48.3083V25.6261H57.0428V24.6261ZM47.8345 24.9665L46.1937 29.8405L47.1415 30.1595L48.7822 25.2856L47.8345 24.9665ZM46.6676 29.5H41.488V30.5H46.6676V29.5ZM41.959 30.168L50.42 6.45784L49.4782 6.12175L41.0171 29.832L41.959 30.168ZM49.9491 6.78979H55.5469V5.78979H49.9491V6.78979ZM55.0756 6.4567L63.4723 30.1669L64.4149 29.8331L56.0182 6.12288L55.0756 6.4567ZM63.9436 29.5H58.571V30.5H63.9436V29.5ZM59.0481 29.8504L57.5199 24.9765L56.5657 25.2756L58.0939 30.1496L59.0481 29.8504ZM56.1361 20.8891L53.1763 11.5595L52.2231 11.8618L55.1829 21.1915L56.1361 20.8891ZM52.2246 11.555L49.1683 20.8847L50.1186 21.196L53.1749 11.8663L52.2246 11.555ZM49.6435 21.5403H55.6595V20.5403H49.6435V21.5403ZM84.4946 30V30.5H84.9946V30H84.4946ZM79.5402 30L79.1067 30.2492L79.2509 30.5H79.5402V30ZM69.8566 13.1584L70.2901 12.9091L69.3566 11.2857V13.1584H69.8566ZM69.8566 30V30.5H70.3566V30H69.8566ZM65.2401 30H64.7401V30.5H65.2401V30ZM65.2401 6.28979V5.78979H64.7401V6.28979H65.2401ZM70.4357 6.28979L70.87 6.04204L70.7261 5.78979H70.4357V6.28979ZM79.878 22.8419L79.4437 23.0896L80.378 24.7275V22.8419H79.878ZM79.878 6.28979V5.78979H79.378V6.28979H79.878ZM84.4946 6.28979H84.9946V5.78979H84.4946V6.28979ZM84.4946 29.5H79.5402V30.5H84.4946V29.5ZM79.9736 29.7508L70.2901 12.9091L69.4232 13.4076L79.1067 30.2492L79.9736 29.7508ZM69.3566 13.1584V30H70.3566V13.1584H69.3566ZM69.8566 29.5H65.2401V30.5H69.8566V29.5ZM65.7401 30V6.28979H64.7401V30H65.7401ZM65.2401 6.78979H70.4357V5.78979H65.2401V6.78979ZM70.0014 6.53754L79.4437 23.0896L80.3123 22.5941L70.87 6.04204L70.0014 6.53754ZM80.378 22.8419V6.28979H79.378V22.8419H80.378ZM79.878 6.78979H84.4946V5.78979H79.878V6.78979ZM83.9946 6.28979V30H84.9946V6.28979H83.9946ZM108.488 30V30.5H109.474L108.891 29.7046L108.488 30ZM102.118 30L101.71 30.2885L101.859 30.5H102.118V30ZM94.799 19.6409L95.2074 19.3523L94.8603 18.8611L94.4407 19.2921L94.799 19.6409ZM92.4344 22.0698L92.0762 21.721L91.9344 21.8666V22.0698H92.4344ZM92.4344 30V30.5H92.9344V30H92.4344ZM87.5605 30H87.0605V30.5H87.5605V30ZM87.5605 6.28979V5.78979H87.0605V6.28979H87.5605ZM92.4344 6.28979H92.9344V5.78979H92.4344V6.28979ZM92.4344 16.0538H91.9344V17.3183L92.7992 16.3957L92.4344 16.0538ZM101.587 6.28979V5.78979H101.371L101.222 5.94784L101.587 6.28979ZM107.989 6.28979L108.344 6.64247L109.192 5.78979H107.989V6.28979ZM98.2735 16.0538L97.9191 15.7011L97.6174 16.0042L97.8701 16.3492L98.2735 16.0538ZM108.488 29.5H102.118V30.5H108.488V29.5ZM102.526 29.7115L95.2074 19.3523L94.3906 19.9294L101.71 30.2885L102.526 29.7115ZM94.4407 19.2921L92.0762 21.721L92.7927 22.4186L95.1573 19.9896L94.4407 19.2921ZM91.9344 22.0698V30H92.9344V22.0698H91.9344ZM92.4344 29.5H87.5605V30.5H92.4344V29.5ZM88.0605 30V6.28979H87.0605V30H88.0605ZM87.5605 6.78979H92.4344V5.78979H87.5605V6.78979ZM91.9344 6.28979V16.0538H92.9344V6.28979H91.9344ZM92.7992 16.3957L101.952 6.63174L101.222 5.94784L92.0696 15.7118L92.7992 16.3957ZM101.587 6.78979H107.989V5.78979H101.587V6.78979ZM107.635 5.93712L97.9191 15.7011L98.6279 16.4064L108.344 6.64247L107.635 5.93712ZM97.8701 16.3492L108.084 30.2954L108.891 29.7046L98.6769 15.7583L97.8701 16.3492Z" fill="black"/>
<path d="M130.929 6.28979L122.999 21.0886V30H118.045V21.0886L109.841 6.28979H115.68L120.602 16.6168L125.316 6.28979H130.929ZM143.26 30.6595C139.871 30.6595 137.282 29.7373 135.491 27.8928C133.089 25.6301 131.888 22.3701 131.888 18.1127C131.888 13.7696 133.089 10.5096 135.491 8.33267C137.282 6.48818 139.871 5.56594 143.26 5.56594C146.649 5.56594 149.239 6.48818 151.029 8.33267C153.421 10.5096 154.617 13.7696 154.617 18.1127C154.617 22.3701 153.421 25.6301 151.029 27.8928C149.239 29.7373 146.649 30.6595 143.26 30.6595ZM147.941 24.2896C149.088 22.8419 149.662 20.7829 149.662 18.1127C149.662 15.4532 149.083 13.3996 147.925 11.9519C146.777 10.4935 145.223 9.76429 143.26 9.76429C141.298 9.76429 139.732 10.4881 138.563 11.9358C137.394 13.3836 136.81 15.4425 136.81 18.1127C136.81 20.7829 137.394 22.8419 138.563 24.2896C139.732 25.7373 141.298 26.4612 143.26 26.4612C145.223 26.4612 146.783 25.7373 147.941 24.2896ZM171.451 20.8634V6.28979H176.486V20.8634C176.486 23.3834 176.094 25.3459 175.312 26.7507C173.853 29.3244 171.07 30.6113 166.963 30.6113C162.856 30.6113 160.068 29.3244 158.599 26.7507C157.816 25.3459 157.424 23.3834 157.424 20.8634V6.28979H162.459V20.8634C162.459 22.4934 162.652 23.6837 163.038 24.4344C163.639 25.7641 164.947 26.429 166.963 26.429C168.969 26.429 170.271 25.7641 170.872 24.4344C171.258 23.6837 171.451 22.4934 171.451 20.8634Z" fill="black"/>
</svg>
