<svg width="117" height="26" viewBox="0 0 117 26" fill="none" xmlns="http://www.w3.org/2000/svg">
<path d="M21.6512 0.765988L22.092 1.00215L22.4864 0.265988H21.6512V0.765988ZM13.721 15.5648L13.2803 15.3286L13.221 15.4392V15.5648H13.721ZM13.721 24.4762V24.9762H14.221V24.4762H13.721ZM8.76666 24.4762H8.26666V24.9762H8.76666V24.4762ZM8.76666 15.5648H9.26666V15.4354L9.20397 15.3223L8.76666 15.5648ZM0.562997 0.765988V0.265988H-0.285864L0.125694 1.00841L0.562997 0.765988ZM6.40208 0.765988L6.85343 0.550858L6.71765 0.265988H6.40208V0.765988ZM11.3243 11.093L10.8729 11.3081L11.3341 12.2757L11.7791 11.3006L11.3243 11.093ZM16.0374 0.765988V0.265988H15.7159L15.5825 0.558393L16.0374 0.765988ZM21.2105 0.529824L13.2803 15.3286L14.1617 15.8009L22.092 1.00215L21.2105 0.529824ZM13.221 15.5648V24.4762H14.221V15.5648H13.221ZM13.721 23.9762H8.76666V24.9762H13.721V23.9762ZM9.26666 24.4762V15.5648H8.26666V24.4762H9.26666ZM9.20397 15.3223L1.0003 0.523571L0.125694 1.00841L8.32936 15.8072L9.20397 15.3223ZM0.562997 1.26599H6.40208V0.265988H0.562997V1.26599ZM5.95073 0.981119L10.8729 11.3081L11.7756 10.8778L6.85343 0.550858L5.95073 0.981119ZM11.7791 11.3006L16.4922 0.973583L15.5825 0.558393L10.8694 10.8854L11.7791 11.3006ZM16.0374 1.26599H21.6512V0.265988H16.0374V1.26599ZM25.5536 22.369L25.9124 22.0207L25.9046 22.0127L25.8965 22.005L25.5536 22.369ZM25.5536 2.80886L25.8894 3.17936L25.9012 3.16863L25.9124 3.15716L25.5536 2.80886ZM41.0923 2.80886L40.7336 3.15716L40.7443 3.16823L40.7557 3.17861L41.0923 2.80886ZM41.0923 22.369L40.7487 22.0058L40.741 22.0131L40.7336 22.0207L41.0923 22.369ZM38.0039 18.7658L38.3943 19.0782L38.3957 19.0764L38.0039 18.7658ZM37.9878 6.42813L37.5948 6.7373L37.5974 6.74047L37.9878 6.42813ZM33.323 24.6357C30.0246 24.6357 27.5819 23.7402 25.9124 22.0207L25.1949 22.7173C27.1071 24.6868 29.8439 25.6357 33.323 25.6357V24.6357ZM25.8965 22.005C23.6217 19.8623 22.4504 16.7506 22.4504 12.5889H21.4504C21.4504 16.9419 22.6813 20.3503 25.2108 22.7329L25.8965 22.005ZM22.4504 12.5889C22.4504 8.33671 23.624 5.23232 25.8894 3.17936L25.2179 2.43837C22.679 4.73924 21.4504 8.1549 21.4504 12.5889H22.4504ZM25.9124 3.15716C27.5819 1.43768 30.0246 0.542135 33.323 0.542135V-0.457865C29.8439 -0.457865 27.1071 0.491077 25.1949 2.46056L25.9124 3.15716ZM33.323 0.542135C36.6213 0.542135 39.0641 1.43768 40.7336 3.15716L41.4511 2.46056C39.5388 0.491077 36.802 -0.457865 33.323 -0.457865V0.542135ZM40.7557 3.17861C43.0108 5.23141 44.1794 8.33605 44.1794 12.5889H45.1794C45.1794 8.15555 43.9567 4.74016 41.4289 2.43912L40.7557 3.17861ZM44.1794 12.5889C44.1794 16.7513 43.0132 19.8632 40.7487 22.0058L41.436 22.7322C43.9543 20.3494 45.1794 16.9412 45.1794 12.5889H44.1794ZM40.7336 22.0207C39.0641 23.7402 36.6213 24.6357 33.323 24.6357V25.6357C36.802 25.6357 39.5388 24.6868 41.4511 22.7173L40.7336 22.0207ZM38.3957 19.0764C39.6385 17.5085 40.2251 15.3231 40.2251 12.5889H39.2251C39.2251 15.1951 38.6642 17.1277 37.612 18.4552L38.3957 19.0764ZM40.2251 12.5889C40.2251 9.86397 39.6325 7.68354 38.3782 6.11578L37.5974 6.74047C38.6595 8.06813 39.2251 9.99489 39.2251 12.5889H40.2251ZM38.3808 6.11896C37.1324 4.53224 35.4285 3.74048 33.323 3.74048V4.74048C35.1423 4.74048 36.5483 5.40715 37.5948 6.73729L38.3808 6.11896ZM33.323 3.74048C31.219 3.74048 29.5066 4.52545 28.2369 6.09794L29.015 6.72614C30.0831 5.40322 31.5021 4.74048 33.323 4.74048V3.74048ZM28.2369 6.09794C26.9708 7.66615 26.3726 9.85292 26.3726 12.5889H27.3726C27.3726 9.9845 27.9434 8.05335 29.015 6.72614L28.2369 6.09794ZM26.3726 12.5889C26.3726 15.3249 26.9708 17.5117 28.2369 19.0799L29.015 18.4517C27.9434 17.1245 27.3726 15.1933 27.3726 12.5889H26.3726ZM28.2369 19.0799C29.5066 20.6524 31.219 21.4374 33.323 21.4374V20.4374C31.5021 20.4374 30.0831 19.7746 29.015 18.4517L28.2369 19.0799ZM33.323 21.4374C35.4271 21.4374 37.1351 20.6522 38.3943 19.0781L37.6135 18.4535C36.5564 19.7748 35.1438 20.4374 33.323 20.4374V21.4374ZM60.8551 0.765988V0.265988H60.3551V0.765988H60.8551ZM65.8899 0.765988H66.3899V0.265988H65.8899V0.765988ZM64.7157 21.2269L65.1507 21.4734L65.1524 21.4703L64.7157 21.2269ZM48.0027 21.2269L47.5659 21.4703L47.5685 21.4748L48.0027 21.2269ZM46.8285 0.765988V0.265988H46.3285V0.765988H46.8285ZM51.8633 0.765988H52.3633V0.265988H51.8633V0.765988ZM52.4423 18.9106L52.898 18.7048L52.8928 18.6932L52.887 18.6819L52.4423 18.9106ZM60.276 18.9106L59.8314 18.6819L59.8256 18.6932L59.8204 18.7048L60.276 18.9106ZM61.3551 15.3396V0.765988H60.3551V15.3396H61.3551ZM60.8551 1.26599H65.8899V0.265988H60.8551V1.26599ZM65.3899 0.765988V15.3396H66.3899V0.765988H65.3899ZM65.3899 15.3396C65.3899 17.8183 65.0032 19.6838 64.2789 20.9835L65.1524 21.4703C65.9938 19.9604 66.3899 17.901 66.3899 15.3396H65.3899ZM64.2807 20.9804C62.944 23.3392 60.3731 24.5875 56.3672 24.5875V25.5875C60.5758 25.5875 63.5705 24.262 65.1507 21.4734L64.2807 20.9804ZM56.3672 24.5875C52.3617 24.5875 49.7843 23.3393 48.4369 20.979L47.5685 21.4748C49.1595 24.2619 52.1584 25.5875 56.3672 25.5875V24.5875ZM48.4395 20.9835C47.7152 19.6838 47.3285 17.8183 47.3285 15.3396H46.3285C46.3285 17.901 46.7246 19.9604 47.566 21.4703L48.4395 20.9835ZM47.3285 15.3396V0.765988H46.3285V15.3396H47.3285ZM46.8285 1.26599H51.8633V0.265988H46.8285V1.26599ZM51.3633 0.765988V15.3396H52.3633V0.765988H51.3633ZM51.3633 15.3396C51.3633 16.9882 51.555 18.2785 51.9977 19.1392L52.887 18.6819C52.5576 18.0413 52.3633 16.951 52.3633 15.3396H51.3633ZM51.9867 19.1164C52.699 20.6937 54.2429 21.4052 56.3672 21.4052V20.4052C54.4595 20.4052 53.3867 19.7869 52.898 18.7048L51.9867 19.1164ZM56.3672 21.4052C58.4824 21.4052 60.0198 20.6927 60.7317 19.1164L59.8204 18.7048C59.3312 19.7879 58.2628 20.4052 56.3672 20.4052V21.4052ZM60.7207 19.1392C61.1634 18.2785 61.3551 16.9882 61.3551 15.3396H60.3551C60.3551 16.951 60.1608 18.0413 59.8314 18.6819L60.7207 19.1392ZM71.996 8.06886L71.6152 7.7449L71.613 7.74747L71.996 8.06886ZM68.6824 9.88654H68.1824V10.4937L68.7783 10.3772L68.6824 9.88654ZM68.6824 8.19755L68.5316 7.72083L68.1824 7.83129V8.19755H68.6824ZM70.854 6.50856L71.3012 6.73216L71.3053 6.72388L71.3091 6.71546L70.854 6.50856ZM71.1274 5.07693L71.6263 5.04368L71.5952 4.57693H71.1274V5.07693ZM68.602 5.07693H68.102V5.57693H68.602V5.07693ZM68.602 0.846416V0.346416H68.102V0.846416H68.602ZM73.1864 0.846416H73.6864V0.346416H73.1864V0.846416ZM72.6864 4.24048C72.6864 5.77976 72.31 6.92802 71.6152 7.74491L72.3769 8.39281C73.2692 7.34377 73.6864 5.93978 73.6864 4.24048H72.6864ZM71.613 7.74747C70.9172 8.5767 69.923 9.13454 68.5865 9.39583L68.7783 10.3772C70.2943 10.0809 71.5092 9.42695 72.3791 8.39025L71.613 7.74747ZM69.1824 9.88654V8.19755H68.1824V9.88654H69.1824ZM68.8332 8.67426C69.9799 8.31155 70.8299 7.67471 71.3012 6.73216L70.4067 6.28495C70.0844 6.92952 69.4868 7.41867 68.5316 7.72083L68.8332 8.67426ZM71.3091 6.71546C71.5553 6.17394 71.6644 5.61455 71.6263 5.04368L70.6285 5.11019C70.6548 5.50446 70.5816 5.89948 70.3988 6.30165L71.3091 6.71546ZM71.1274 4.57693H68.602V5.57693H71.1274V4.57693ZM69.102 5.07693V0.846416H68.102V5.07693H69.102ZM68.602 1.34642H73.1864V0.346416H68.602V1.34642ZM72.6864 0.846416V4.24048H73.6864V0.846416H72.6864ZM81.464 15.1787V14.6787H80.964V15.1787H81.464ZM81.464 24.4762V24.9762H81.964V24.4762H81.464ZM76.6223 24.4762H76.1223V24.9762H76.6223V24.4762ZM76.6223 0.765988V0.265988H76.1223V0.765988H76.6223ZM88.2522 0.765988L88.2618 0.265988H88.2522V0.765988ZM92.0805 1.37724L91.8863 1.83796L91.8882 1.83878L92.0805 1.37724ZM94.3647 3.03406L93.9843 3.35854L93.9851 3.35946L94.3647 3.03406ZM95.1851 10.8517L95.6278 11.084L95.6287 11.0822L95.1851 10.8517ZM92.3701 13.1519L92.2073 12.6791L90.9393 13.1157L92.1836 13.6158L92.3701 13.1519ZM94.6864 15.0339L94.2487 15.2758L94.2526 15.2826L94.6864 15.0339ZM95.5068 22.5298L95.9961 22.4268L95.9949 22.4214L95.5068 22.5298ZM96.4076 23.881H96.9076V23.6012L96.6691 23.4549L96.4076 23.881ZM96.4076 24.4762V24.9762H96.9076V24.4762H96.4076ZM90.9545 24.4762L90.4738 24.6136L90.5774 24.9762H90.9545V24.4762ZM90.6328 23.2054L90.1419 23.3004L90.1425 23.3035L90.6328 23.2054ZM90.4237 21.1626L89.9238 21.1699V21.1702L90.4237 21.1626ZM90.3915 18.9588L89.8916 18.9659L89.8916 18.9661L90.3915 18.9588ZM89.5551 15.9347L89.209 16.2956L89.2126 16.299L89.5551 15.9347ZM89.5873 10.8678L89.3796 10.4129L89.3777 10.4138L89.5873 10.8678ZM89.6355 5.30213L89.4048 5.74574L89.4059 5.74631L89.6355 5.30213ZM81.464 4.88391V4.38391H80.964V4.88391H81.464ZM81.464 11.2538H80.964V11.7538H81.464V11.2538ZM86.5793 14.6787H81.464V15.6787H86.5793V14.6787ZM80.964 15.1787V24.4762H81.964V15.1787H80.964ZM81.464 23.9762H76.6223V24.9762H81.464V23.9762ZM77.1223 24.4762V0.765988H76.1223V24.4762H77.1223ZM76.6223 1.26599H88.2522V0.265988H76.6223V1.26599ZM88.2425 1.26589C89.8803 1.29759 91.0823 1.49893 91.8863 1.83795L92.2748 0.916529C91.2987 0.504895 89.9484 0.298725 88.2618 0.266082L88.2425 1.26589ZM91.8882 1.83878C92.7178 2.18443 93.4143 2.69029 93.9843 3.35853L94.7451 2.70959C94.0711 1.9194 93.2449 1.32072 92.2728 0.915703L91.8882 1.83878ZM93.9851 3.35946C94.4653 3.91978 94.8449 4.5391 95.1249 5.21905L96.0495 4.8383C95.729 4.05983 95.2935 3.3494 94.7443 2.70866L93.9851 3.35946ZM95.1249 5.21905C95.3961 5.87789 95.5376 6.64255 95.5376 7.52195H96.5376C96.5376 6.53542 96.3788 5.63789 96.0495 4.8383L95.1249 5.21905ZM95.5376 7.52195C95.5376 8.56028 95.2763 9.59164 94.7414 10.6211L95.6287 11.0822C96.2305 9.92406 96.5376 8.73561 96.5376 7.52195H95.5376ZM94.7423 10.6193C94.2411 11.5745 93.4121 12.2644 92.2073 12.6791L92.5328 13.6247C93.9446 13.1387 94.9923 12.2951 95.6278 11.084L94.7423 10.6193ZM92.1836 13.6158C93.1997 14.0243 93.8675 14.5858 94.2488 15.2758L95.124 14.7921C94.6045 13.852 93.7281 13.1589 92.5566 12.688L92.1836 13.6158ZM94.2526 15.2826C94.6482 15.9725 94.8781 17.0993 94.8781 18.7336H95.8781C95.8781 17.0436 95.6469 15.704 95.1202 14.7852L94.2526 15.2826ZM94.8781 18.7336V20.3261H95.8781V18.7336H94.8781ZM94.8781 20.3261C94.8781 21.4035 94.9193 22.191 95.0187 22.6383L95.9949 22.4214C95.9227 22.0966 95.8781 21.4149 95.8781 20.3261H94.8781ZM95.0175 22.6328C95.1705 23.3595 95.5416 23.9362 96.1461 24.3072L96.6691 23.4549C96.3299 23.2467 96.1004 22.9226 95.996 22.4268L95.0175 22.6328ZM95.9076 23.881V24.4762H96.9076V23.881H95.9076ZM96.4076 23.9762H90.9545V24.9762H96.4076V23.9762ZM91.4353 24.3388C91.2868 23.819 91.1837 23.4101 91.1231 23.1074L90.1425 23.3035C90.2107 23.6442 90.322 24.0824 90.4738 24.6136L91.4353 24.3388ZM91.1237 23.1104C91.0008 22.4752 90.9339 21.8235 90.9237 21.1549L89.9238 21.1702C89.9349 21.8957 90.0075 22.606 90.1419 23.3004L91.1237 23.1104ZM90.9237 21.1553L90.8915 18.9515L89.8916 18.9661L89.9238 21.1699L90.9237 21.1553ZM90.8915 18.9517C90.8804 18.1702 90.8028 17.4944 90.6483 16.9355C90.4942 16.3784 90.2549 15.9063 89.8976 15.5704L89.2126 16.299C89.3915 16.4672 89.5597 16.7511 89.6844 17.2021C89.8087 17.6512 89.8812 18.2354 89.8916 18.9659L90.8915 18.9517ZM89.9012 15.5739C89.2251 14.9254 88.0552 14.6787 86.5793 14.6787V15.6787C88.0202 15.6787 88.8342 15.936 89.209 16.2956L89.9012 15.5739ZM89.7949 11.3226C90.3787 11.0561 90.8325 10.6497 91.1345 10.1048C91.433 9.56626 91.5671 8.92198 91.5671 8.19755H90.5671C90.5671 8.80285 90.4547 9.26849 90.2598 9.62003C90.0686 9.96517 89.7824 10.229 89.3796 10.4129L89.7949 11.3226ZM91.5671 8.19755C91.5671 6.64686 91.042 5.46622 89.8651 4.85795L89.4059 5.74631C90.1379 6.12463 90.5671 6.87426 90.5671 8.19755H91.5671ZM89.8662 4.85853C89.2231 4.52411 88.3221 4.38391 87.2227 4.38391V5.38391C88.268 5.38391 88.9756 5.52252 89.4048 5.74574L89.8662 4.85853ZM87.2227 4.38391H81.464V5.38391H87.2227V4.38391ZM80.964 4.88391V11.2538H81.964V4.88391H80.964ZM81.464 11.7538H87.0779V10.7538H81.464V11.7538ZM87.0779 11.7538C88.2159 11.7538 89.1398 11.625 89.7968 11.3217L89.3777 10.4138C88.9195 10.6253 88.1705 10.7538 87.0779 10.7538V11.7538ZM115.173 14.1171V14.6171H115.673V14.1171H115.173ZM103.656 14.1171V13.6171H103.156V14.1171H103.656ZM103.656 20.2135H103.156V20.7135H103.656V20.2135ZM116.782 20.2135H117.282V19.7135H116.782V20.2135ZM116.782 24.4762V24.9762H117.282V24.4762H116.782ZM98.814 24.4762H98.314V24.9762H98.814V24.4762ZM98.814 0.765988V0.265988H98.314V0.765988H98.814ZM116.203 0.765988H116.703V0.265988H116.203V0.765988ZM116.203 4.96434V5.46434H116.703V4.96434H116.203ZM103.656 4.96434V4.46434H103.156V4.96434H103.656ZM103.656 9.99914H103.156V10.4991H103.656V9.99914ZM115.173 9.99914H115.673V9.49914H115.173V9.99914ZM115.173 13.6171H103.656V14.6171H115.173V13.6171ZM103.156 14.1171V20.2135H104.156V14.1171H103.156ZM103.656 20.7135H116.782V19.7135H103.656V20.7135ZM116.282 20.2135V24.4762H117.282V20.2135H116.282ZM116.782 23.9762H98.814V24.9762H116.782V23.9762ZM99.314 24.4762V0.765988H98.314V24.4762H99.314ZM98.814 1.26599H116.203V0.265988H98.814V1.26599ZM115.703 0.765988V4.96434H116.703V0.765988H115.703ZM116.203 4.46434H103.656V5.46434H116.203V4.46434ZM103.156 4.96434V9.99914H104.156V4.96434H103.156ZM103.656 10.4991H115.173V9.49914H103.656V10.4991ZM114.673 9.99914V14.1171H115.673V9.99914H114.673Z" fill="black"/>
</svg>
